<?xml version="1.0" standalone="no"?>
<!DOCTYPE svg PUBLIC "-//W3C//DTD SVG 20010904//EN"
 "http://www.w3.org/TR/2001/REC-SVG-20010904/DTD/svg10.dtd">
<svg version="1.0" xmlns="http://www.w3.org/2000/svg"
 width="1280.000000pt" height="1279.000000pt" viewBox="0 0 1280.000000 1279.000000"
 preserveAspectRatio="xMidYMid meet">
<g transform="translate(0.000000,1279.000000) scale(0.100000,-0.100000)"
fill="#000000" stroke="none">
<path d="M5383 12494 c-3 -8 -1 -20 6 -27 14 -14 47 15 37 32 -10 16 -36 13
-43 -5z"/>
<path d="M5946 12501 c-11 -18 6 -42 28 -39 29 4 29 42 -1 46 -11 2 -24 -1
-27 -7z"/>
<path d="M6513 12494 c-3 -8 -1 -20 5 -26 16 -16 42 -2 42 22 0 24 -38 28 -47
4z"/>
<path d="M7082 12488 c2 -15 10 -23 23 -23 30 0 27 39 -3 43 -20 3 -23 0 -20
-20z"/>
<path d="M7652 12488 c7 -19 38 -22 38 -4 0 10 -9 16 -21 16 -12 0 -19 -5 -17
-12z"/>
<path d="M6226 12235 c-29 -29 -14 -75 25 -75 20 0 49 26 49 43 -1 36 -49 56
-74 32z"/>
<path d="M6798 12239 c-22 -12 -23 -52 -3 -69 8 -7 25 -10 40 -6 20 5 25 13
25 36 0 19 -7 33 -19 40 -23 12 -22 12 -43 -1z"/>
<path d="M5090 12219 c-9 -15 -8 -24 1 -35 28 -33 80 -3 59 35 -6 12 -19 21
-30 21 -11 0 -24 -9 -30 -21z"/>
<path d="M5654 12226 c-12 -31 1 -51 32 -54 24 -2 33 1 36 16 3 11 1 27 -4 36
-11 20 -57 21 -64 2z"/>
<path d="M7354 12226 c-12 -31 1 -51 32 -54 36 -4 50 18 34 49 -13 22 -58 26
-66 5z"/>
<path d="M7929 12224 c-9 -11 -10 -20 -2 -32 14 -22 43 -22 57 1 9 15 7 21 -8
33 -25 18 -31 18 -47 -2z"/>
<path d="M4537 12224 c-4 -4 -7 -16 -7 -26 0 -14 6 -19 23 -16 14 2 22 10 22
23 0 20 -25 32 -38 19z"/>
<path d="M8504 12216 c-7 -19 3 -36 22 -36 10 0 14 8 12 22 -4 26 -26 36 -34
14z"/>
<path d="M5383 11969 c-44 -16 -38 -90 7 -102 32 -8 75 33 67 65 -8 30 -44 48
-74 37z"/>
<path d="M5930 11960 c-11 -11 -20 -29 -20 -40 0 -11 9 -29 20 -40 11 -11 29
-20 40 -20 11 0 29 9 40 20 11 11 20 29 20 40 0 11 -9 29 -20 40 -11 11 -29
20 -40 20 -11 0 -29 -9 -40 -20z"/>
<path d="M6503 11965 c-32 -22 -31 -69 2 -91 25 -16 63 -12 77 10 10 14 10 58
0 73 -13 20 -56 25 -79 8z"/>
<path d="M7072 11964 c-32 -22 -30 -69 4 -91 24 -15 29 -15 53 -2 36 20 41 71
9 93 -28 20 -38 20 -66 0z"/>
<path d="M4806 11954 c-9 -8 -16 -24 -16 -34 0 -20 25 -50 41 -50 26 0 49 23
49 48 0 49 -42 69 -74 36z"/>
<path d="M7632 11958 c-7 -7 -12 -24 -12 -38 0 -33 17 -50 50 -50 33 0 50 17
50 50 0 33 -17 50 -50 50 -14 0 -31 -5 -38 -12z"/>
<path d="M4246 11944 c-9 -8 -16 -19 -16 -24 0 -11 29 -40 40 -40 11 0 40 29
40 40 0 11 -29 40 -40 40 -5 0 -16 -7 -24 -16z"/>
<path d="M8200 11940 c-16 -30 4 -60 40 -60 20 0 31 6 35 20 11 35 -3 60 -35
60 -19 0 -33 -7 -40 -20z"/>
<path d="M8775 11940 c-12 -20 6 -50 30 -50 25 0 38 21 29 45 -7 17 -49 20
-59 5z"/>
<path d="M3685 11930 c-4 -7 -3 -16 3 -22 14 -14 45 -2 40 15 -6 16 -34 21
-43 7z"/>
<path d="M9360 11920 c0 -5 5 -10 10 -10 6 0 10 5 10 10 0 6 -4 10 -10 10 -5
0 -10 -4 -10 -10z"/>
<path d="M6205 11685 c-40 -39 -30 -86 23 -114 32 -17 77 2 92 39 9 23 9 34
-4 58 -25 49 -72 56 -111 17z"/>
<path d="M6775 11685 c-41 -40 -30 -92 24 -114 36 -15 64 -3 85 37 16 32 7 63
-26 86 -32 22 -55 20 -83 -9z"/>
<path d="M5084 11692 c-13 -9 -34 -46 -34 -62 0 -20 49 -60 74 -60 55 0 83 84
39 118 -18 13 -62 16 -79 4z"/>
<path d="M5637 11682 c-21 -23 -22 -61 -1 -90 19 -28 74 -30 97 -4 22 25 21
75 -1 95 -25 22 -75 21 -95 -1z"/>
<path d="M7336 11678 c-22 -31 -20 -64 4 -88 41 -41 110 -13 110 44 0 41 -26
66 -68 66 -21 0 -36 -7 -46 -22z"/>
<path d="M7911 11676 c-29 -30 -24 -63 12 -90 26 -19 30 -19 55 -5 15 8 31 27
36 42 8 22 6 31 -14 52 -30 31 -60 32 -89 1z"/>
<path d="M4517 11672 c-33 -36 -8 -92 40 -92 25 0 53 30 53 57 0 46 -62 69
-93 35z"/>
<path d="M8488 11679 c-24 -14 -23 -61 2 -84 44 -39 108 21 75 71 -16 25 -48
31 -77 13z"/>
<path d="M3950 11665 c-31 -38 27 -96 65 -65 18 15 20 51 3 68 -17 17 -53 15
-68 -3z"/>
<path d="M3402 11661 c-23 -14 -10 -46 18 -46 16 0 26 6 28 19 3 16 -12 36
-28 36 -3 0 -11 -4 -18 -9z"/>
<path d="M9054 11656 c-11 -29 1 -51 28 -54 30 -4 52 25 42 52 -8 20 -63 21
-70 2z"/>
<path d="M9633 11644 c-3 -8 -1 -20 6 -27 14 -14 47 15 37 32 -10 16 -36 13
-43 -5z"/>
<path d="M5935 11428 c-52 -28 -62 -92 -20 -133 64 -65 166 6 130 91 -19 47
-68 66 -110 42z"/>
<path d="M6479 11411 c-16 -16 -29 -39 -29 -50 0 -78 92 -120 145 -66 41 40
33 105 -16 130 -42 22 -67 18 -100 -14z"/>
<path d="M7049 11411 c-38 -39 -38 -78 -1 -114 17 -16 39 -27 56 -27 36 0 86
49 86 85 0 16 -12 38 -29 56 -18 17 -40 29 -56 29 -16 0 -38 -12 -56 -29z"/>
<path d="M4785 11405 c-14 -13 -25 -36 -25 -50 0 -35 42 -75 78 -75 65 0 97
89 46 129 -35 28 -69 26 -99 -4z"/>
<path d="M5350 11410 c-26 -26 -27 -90 -2 -113 10 -10 35 -17 55 -17 48 0 77
28 77 75 0 22 -8 43 -20 55 -12 12 -33 20 -55 20 -22 0 -43 -8 -55 -20z"/>
<path d="M7632 11423 c-21 -8 -44 -62 -36 -86 12 -39 35 -57 75 -57 29 0 42 6
58 26 28 35 26 65 -4 98 -23 25 -60 33 -93 19z"/>
<path d="M4242 11413 c-22 -9 -40 -56 -31 -81 12 -32 52 -48 84 -34 75 34 24
146 -53 115z"/>
<path d="M8187 11402 c-21 -23 -22 -76 -1 -96 18 -19 85 -21 102 -4 7 7 12 31
12 55 0 32 -5 45 -19 53 -30 16 -76 12 -94 -8z"/>
<path d="M8782 11409 c-35 -13 -48 -53 -29 -83 22 -33 52 -41 81 -22 61 39 17
130 -52 105z"/>
<path d="M3683 11399 c-42 -15 -37 -80 7 -94 23 -7 55 8 64 30 8 22 -10 62
-31 67 -10 3 -28 1 -40 -3z"/>
<path d="M9335 11380 c-26 -29 -7 -70 34 -70 39 0 57 23 45 58 -12 35 -53 41
-79 12z"/>
<path d="M3109 11374 c-17 -21 0 -49 32 -49 27 0 37 28 19 50 -16 19 -34 19
-51 -1z"/>
<path d="M9914 11365 c-8 -19 3 -35 26 -35 22 0 33 23 17 39 -15 15 -37 14
-43 -4z"/>
<path d="M2560 11355 c0 -8 5 -15 10 -15 6 0 10 7 10 15 0 8 -4 15 -10 15 -5
0 -10 -7 -10 -15z"/>
<path d="M5090 11151 c-15 -4 -32 -21 -43 -43 -16 -33 -16 -40 -3 -71 17 -43
28 -50 78 -50 54 0 83 29 83 83 0 62 -51 98 -115 81z"/>
<path d="M5623 11136 c-22 -19 -28 -32 -28 -66 0 -55 37 -90 94 -90 60 0 86
27 86 90 0 42 -4 55 -24 71 -33 27 -93 25 -128 -5z"/>
<path d="M6187 11132 c-59 -61 -16 -152 70 -152 34 0 46 6 67 31 15 17 26 43
26 59 0 16 -11 42 -26 59 -21 26 -33 31 -68 31 -33 0 -48 -6 -69 -28z"/>
<path d="M6755 11135 c-19 -18 -25 -35 -25 -65 0 -57 34 -90 93 -90 58 0 90
32 90 90 0 58 -32 90 -90 90 -33 0 -50 -6 -68 -25z"/>
<path d="M7334 11145 c-34 -23 -49 -69 -34 -105 39 -95 180 -71 180 30 0 71
-88 116 -146 75z"/>
<path d="M7930 11153 c-93 -35 -72 -167 27 -167 43 0 83 40 83 84 0 52 -65
100 -110 83z"/>
<path d="M4500 11132 c-17 -14 -23 -29 -23 -62 0 -33 6 -48 23 -62 54 -43 130
-6 130 63 0 67 -78 103 -130 61z"/>
<path d="M8476 11129 c-20 -16 -26 -29 -26 -59 0 -30 6 -43 26 -59 35 -28 56
-26 93 5 40 33 40 66 2 105 -35 34 -59 36 -95 8z"/>
<path d="M3940 11120 c-28 -28 -27 -84 2 -104 51 -36 108 -7 108 54 0 29 -6
43 -22 54 -31 22 -64 20 -88 -4z"/>
<path d="M9046 11116 c-15 -14 -26 -35 -26 -46 0 -11 11 -32 26 -46 42 -42
104 -15 104 46 0 34 -18 57 -52 65 -21 5 -33 1 -52 -19z"/>
<path d="M3382 11107 c-28 -30 -28 -48 1 -75 30 -28 48 -28 75 1 28 30 28 48
-1 75 -30 28 -48 28 -75 -1z"/>
<path d="M9616 11104 c-45 -44 19 -109 73 -75 8 5 14 24 14 41 0 48 -53 69
-87 34z"/>
<path d="M2827 11103 c-11 -10 -8 -61 4 -68 5 -4 21 -4 35 -1 18 5 24 13 24
35 0 34 -42 56 -63 34z"/>
<path d="M10194 11086 c-10 -26 4 -48 28 -44 17 2 23 10 23 28 0 18 -6 26 -23
28 -13 2 -25 -3 -28 -12z"/>
<path d="M2270 11070 c0 -5 7 -10 15 -10 8 0 15 5 15 10 0 6 -7 10 -15 10 -8
0 -15 -4 -15 -10z"/>
<path d="M5334 10856 c-33 -33 -36 -40 -31 -79 10 -72 74 -111 140 -84 100 42
78 179 -32 194 -37 5 -44 2 -77 -31z"/>
<path d="M5897 10862 c-22 -23 -27 -37 -27 -79 0 -45 4 -54 31 -77 21 -18 42
-26 69 -26 27 0 48 8 69 26 27 23 31 32 31 78 0 44 -4 56 -28 79 -40 39 -107
38 -145 -1z"/>
<path d="M6477 10879 c-24 -14 -47 -62 -47 -100 0 -22 10 -41 34 -65 46 -46
104 -48 147 -5 24 25 29 38 29 78 0 67 -36 103 -101 103 -24 0 -52 -5 -62 -11z"/>
<path d="M7051 10876 c-91 -50 -51 -196 53 -196 39 0 90 42 100 82 23 90 -71
160 -153 114z"/>
<path d="M7635 10881 c-38 -16 -60 -51 -60 -96 0 -48 16 -72 63 -92 27 -11 37
-11 66 1 83 35 90 143 11 181 -36 17 -50 18 -80 6z"/>
<path d="M4769 10851 c-41 -41 -39 -83 5 -127 44 -44 86 -46 127 -5 61 62 21
161 -65 161 -28 0 -45 -7 -67 -29z"/>
<path d="M8189 10865 c-37 -20 -55 -67 -39 -104 23 -56 72 -81 121 -60 61 25
77 103 30 150 -33 32 -70 37 -112 14z"/>
<path d="M4210 10850 c-31 -31 -28 -102 6 -129 70 -55 161 11 133 96 -6 18
-19 38 -29 43 -32 17 -88 12 -110 -10z"/>
<path d="M8747 10842 c-16 -17 -27 -39 -27 -56 0 -36 49 -86 85 -86 34 0 85
50 85 83 0 14 -12 39 -26 56 -34 41 -79 42 -117 3z"/>
<path d="M3652 10837 c-12 -13 -22 -36 -22 -51 0 -34 41 -76 75 -76 33 0 75
41 75 73 0 67 -83 102 -128 54z"/>
<path d="M3100 10832 c-26 -21 -30 -66 -7 -89 23 -23 68 -19 89 7 25 31 23 55
-8 79 -33 26 -45 26 -74 3z"/>
<path d="M9319 10834 c-20 -24 -16 -84 6 -100 30 -22 81 -18 99 8 20 29 20 72
0 92 -20 21 -88 21 -105 0z"/>
<path d="M9894 10815 c-20 -30 -11 -62 21 -77 52 -23 99 46 59 86 -23 24 -61
20 -80 -9z"/>
<path d="M2535 10809 c-4 -5 -4 -21 -1 -35 5 -19 13 -24 36 -24 23 0 31 5 36
24 8 34 -2 46 -36 46 -16 0 -32 -5 -35 -11z"/>
<path d="M10473 10804 c-15 -39 38 -67 60 -32 8 12 7 21 -2 32 -17 21 -50 20
-58 0z"/>
<path d="M1990 10785 c0 -8 7 -15 15 -15 8 0 15 7 15 15 0 8 -7 15 -15 15 -8
0 -15 -7 -15 -15z"/>
<path d="M5085 10606 c-49 -21 -70 -53 -70 -102 0 -36 6 -49 32 -76 27 -26 41
-33 74 -33 35 0 46 6 76 39 31 34 35 43 30 78 -6 46 -29 75 -74 94 -38 16 -31
16 -68 0z"/>
<path d="M5610 10582 c-44 -44 -51 -81 -25 -132 21 -42 53 -60 103 -60 37 0
50 6 78 34 29 29 34 41 34 80 0 64 -38 106 -103 113 -44 5 -49 3 -87 -35z"/>
<path d="M6193 10604 c-72 -36 -73 -163 -1 -200 84 -43 178 7 178 96 0 93 -91
146 -177 104z"/>
<path d="M6744 10586 c-29 -29 -34 -41 -34 -82 1 -75 41 -114 119 -114 31 0
46 7 70 31 27 26 31 38 31 82 -1 74 -42 117 -113 117 -31 0 -46 -7 -73 -34z"/>
<path d="M7333 10600 c-32 -19 -63 -66 -63 -95 0 -30 38 -91 65 -103 76 -35
165 17 165 96 0 48 -26 91 -65 108 -46 19 -64 18 -102 -6z"/>
<path d="M4502 10590 c-62 -38 -69 -105 -17 -157 32 -32 40 -35 76 -30 76 10
114 73 85 141 -11 26 -26 41 -50 51 -46 19 -55 19 -94 -5z"/>
<path d="M7898 10594 c-36 -19 -48 -43 -48 -94 0 -61 41 -100 105 -100 100 0
142 105 71 176 -38 38 -81 44 -128 18z"/>
<path d="M3955 10591 c-99 -41 -68 -181 40 -181 35 0 85 50 85 85 0 38 -24 79
-55 93 -30 14 -42 14 -70 3z"/>
<path d="M8456 10579 c-22 -17 -26 -28 -26 -73 0 -69 26 -96 91 -96 24 0 52 6
61 14 25 19 40 66 33 103 -12 67 -103 96 -159 52z"/>
<path d="M9026 10559 c-52 -61 -17 -139 62 -139 52 0 82 32 82 87 0 33 -6 46
-26 62 -40 31 -87 28 -118 -10z"/>
<path d="M3373 10565 c-27 -19 -36 -56 -22 -92 13 -35 25 -43 69 -43 41 0 53
7 69 37 17 34 13 62 -14 88 -28 28 -70 32 -102 10z"/>
<path d="M9605 10555 c-49 -48 -16 -125 52 -125 37 0 73 38 73 77 0 32 -42 73
-75 73 -14 0 -37 -11 -50 -25z"/>
<path d="M2816 10549 c-32 -25 -33 -59 -3 -87 31 -29 61 -28 86 4 27 34 26 50
-4 79 -29 30 -45 31 -79 4z"/>
<path d="M10179 10534 c-22 -23 -23 -27 -8 -52 18 -33 62 -41 90 -16 24 22 24
49 -1 74 -27 27 -52 25 -81 -6z"/>
<path d="M2269 10543 c-19 -5 -31 -37 -22 -59 3 -8 16 -17 29 -20 46 -12 72
37 38 70 -16 16 -17 17 -45 9z"/>
<path d="M10759 10524 c-17 -21 0 -49 32 -49 27 0 37 28 19 50 -16 19 -34 19
-51 -1z"/>
<path d="M1710 10505 c0 -8 5 -15 10 -15 6 0 10 7 10 15 0 8 -4 15 -10 15 -5
0 -10 -7 -10 -15z"/>
<path d="M5936 10340 c-39 -12 -73 -46 -86 -86 -15 -44 1 -95 40 -128 43 -36
81 -41 133 -18 37 16 47 28 62 66 17 44 17 48 0 92 -14 37 -25 50 -59 65 -46
21 -49 21 -90 9z"/>
<path d="M6485 10336 c-53 -24 -70 -52 -70 -116 0 -66 17 -93 74 -117 49 -21
101 -9 142 33 28 29 33 41 33 84 0 45 -4 55 -35 85 -40 40 -97 53 -144 31z"/>
<path d="M5322 10306 c-34 -31 -37 -39 -37 -86 0 -47 3 -55 37 -86 31 -28 45
-34 83 -34 38 0 52 6 83 34 34 31 37 39 37 86 0 47 -3 55 -37 86 -31 28 -45
34 -83 34 -38 0 -52 -6 -83 -34z"/>
<path d="M7032 10324 c-29 -20 -52 -66 -52 -104 0 -38 23 -84 52 -104 13 -10
43 -16 73 -16 57 0 88 17 110 60 29 55 12 130 -37 164 -13 10 -43 16 -73 16
-30 0 -60 -6 -73 -16z"/>
<path d="M7603 10320 c-43 -26 -61 -84 -44 -140 28 -95 170 -108 216 -20 58
113 -63 227 -172 160z"/>
<path d="M4754 10299 c-24 -25 -29 -39 -29 -79 0 -40 5 -54 29 -79 26 -27 37
-31 81 -31 45 0 55 4 83 33 26 27 32 41 32 78 0 38 -5 50 -33 77 -28 27 -40
32 -83 32 -43 0 -54 -4 -80 -31z"/>
<path d="M8167 10310 c-36 -29 -52 -81 -37 -125 16 -49 53 -75 107 -75 38 0
50 5 79 34 28 28 34 42 34 76 0 34 -6 48 -34 76 -29 29 -41 34 -79 34 -29 0
-53 -7 -70 -20z"/>
<path d="M4195 10295 c-20 -19 -25 -34 -25 -75 0 -71 29 -100 100 -100 71 0
100 29 100 100 0 71 -29 100 -100 100 -41 0 -56 -5 -75 -25z"/>
<path d="M8731 10285 c-20 -23 -31 -46 -31 -65 0 -19 11 -42 31 -65 41 -47 93
-49 141 -6 27 24 33 36 33 71 0 35 -6 47 -33 71 -48 43 -100 41 -141 -6z"/>
<path d="M3637 10282 c-59 -61 -16 -152 70 -152 34 0 46 6 67 31 15 17 26 43
26 59 0 16 -11 42 -26 59 -21 26 -33 31 -68 31 -33 0 -48 -6 -69 -28z"/>
<path d="M9313 10286 c-22 -19 -28 -32 -28 -66 0 -82 88 -119 146 -61 20 20
29 39 29 61 0 22 -9 41 -29 61 -37 36 -79 38 -118 5z"/>
<path d="M3082 10277 c-48 -51 -13 -137 55 -137 48 0 78 30 78 80 0 32 -6 47
-24 61 -32 26 -82 25 -109 -4z"/>
<path d="M9889 10271 c-34 -35 -36 -59 -9 -94 28 -35 53 -41 89 -22 53 27 54
103 1 130 -40 21 -47 19 -81 -14z"/>
<path d="M2544 10278 c-51 -24 -50 -81 1 -114 23 -15 27 -15 50 0 36 24 47 50
34 79 -9 19 -50 50 -62 46 -1 0 -12 -5 -23 -11z"/>
<path d="M10472 10264 c-32 -22 -30 -69 4 -91 24 -15 29 -15 53 -2 36 20 41
71 9 93 -28 20 -38 20 -66 0z"/>
<path d="M1977 10253 c-11 -10 -8 -61 4 -68 5 -4 21 -4 35 -1 18 5 24 13 24
35 0 34 -42 56 -63 34z"/>
<path d="M11044 10236 c-10 -26 4 -48 28 -44 17 2 23 10 23 28 0 18 -6 26 -23
28 -13 2 -25 -3 -28 -12z"/>
<path d="M1420 10220 c0 -5 7 -10 15 -10 8 0 15 5 15 10 0 6 -7 10 -15 10 -8
0 -15 -4 -15 -10z"/>
<path d="M6214 10069 c-43 -12 -82 -54 -94 -100 -14 -52 14 -120 62 -149 89
-54 208 10 208 113 0 94 -88 162 -176 136z"/>
<path d="M5065 10051 c-46 -28 -66 -56 -72 -99 -17 -124 134 -193 223 -101 25
26 29 38 29 84 0 43 -5 59 -25 80 -52 56 -104 68 -155 36z"/>
<path d="M5607 10040 c-68 -59 -73 -136 -13 -196 85 -85 226 -28 226 91 0 113
-131 178 -213 105z"/>
<path d="M6728 10032 c-36 -35 -40 -43 -41 -89 -1 -89 59 -147 146 -140 119
10 165 151 76 232 -34 30 -46 35 -89 35 -45 0 -56 -4 -92 -38z"/>
<path d="M7305 10039 c-67 -59 -69 -149 -4 -203 62 -52 160 -38 200 29 78 126
-85 271 -196 174z"/>
<path d="M7929 10060 c-67 -19 -99 -60 -99 -125 0 -68 58 -125 126 -125 60 0
124 63 124 123 0 82 -77 147 -151 127z"/>
<path d="M4493 10040 c-60 -36 -79 -108 -44 -166 19 -31 74 -64 108 -64 46 0
123 77 123 123 0 34 -33 89 -64 108 -40 24 -83 24 -123 -1z"/>
<path d="M8492 10049 c-71 -15 -105 -86 -76 -159 40 -99 186 -92 214 10 25 95
-44 170 -138 149z"/>
<path d="M3941 10037 c-88 -45 -84 -166 6 -204 43 -17 71 -12 112 23 97 81 -6
239 -118 181z"/>
<path d="M9027 10029 c-24 -14 -47 -62 -47 -100 0 -22 10 -41 34 -65 46 -46
104 -48 147 -5 24 25 29 38 29 79 0 44 -4 54 -31 76 -33 28 -97 35 -132 15z"/>
<path d="M3355 10005 c-18 -17 -25 -35 -25 -64 0 -53 7 -69 41 -86 81 -43 162
22 137 110 -18 66 -105 89 -153 40z"/>
<path d="M9597 10010 c-69 -54 -25 -170 64 -170 27 0 89 61 89 89 0 79 -92
128 -153 81z"/>
<path d="M2799 9991 c-34 -34 -37 -68 -9 -104 26 -33 63 -41 101 -22 55 29 61
96 12 135 -36 28 -70 25 -104 -9z"/>
<path d="M10170 9990 c-30 -30 -27 -83 6 -109 38 -30 68 -26 99 11 20 23 25
38 20 57 -13 57 -85 81 -125 41z"/>
<path d="M2241 9974 c-27 -34 -26 -50 4 -79 29 -30 45 -31 79 -4 32 25 33 59
3 87 -31 29 -61 28 -86 -4z"/>
<path d="M10744 9965 c-21 -33 -6 -72 31 -81 50 -13 86 53 49 90 -24 24 -61
20 -80 -9z"/>
<path d="M1685 9959 c-4 -5 -4 -21 -1 -35 5 -19 13 -24 36 -24 23 0 31 5 36
24 8 34 -2 46 -36 46 -16 0 -32 -5 -35 -11z"/>
<path d="M11343 9963 c-7 -3 -13 -16 -13 -29 0 -19 5 -24 25 -24 20 0 25 5 25
24 0 25 -15 36 -37 29z"/>
<path d="M5366 9790 c-39 -12 -83 -56 -97 -97 -42 -127 109 -233 220 -154 37
27 65 94 56 138 -8 45 -59 100 -103 113 -42 11 -37 11 -76 0z"/>
<path d="M5899 9779 c-49 -29 -69 -66 -69 -128 0 -59 17 -92 65 -121 63 -39
158 -18 199 45 22 33 21 119 -1 157 -22 36 -80 68 -125 68 -18 0 -49 -10 -69
-21z"/>
<path d="M6474 9786 c-120 -53 -104 -232 25 -275 72 -24 159 27 180 105 32
119 -90 220 -205 170z"/>
<path d="M7065 9793 c-87 -24 -131 -131 -87 -212 36 -66 133 -91 199 -51 117
71 82 248 -53 264 -21 2 -48 2 -59 -1z"/>
<path d="M7635 9787 c-57 -23 -73 -37 -90 -81 -32 -84 6 -160 92 -186 35 -11
46 -10 86 8 80 35 107 113 67 191 -29 58 -101 89 -155 68z"/>
<path d="M4784 9776 c-37 -17 -70 -57 -79 -96 -16 -73 52 -160 126 -160 144 0
194 186 67 251 -43 22 -71 23 -114 5z"/>
<path d="M8183 9771 c-48 -22 -73 -62 -73 -118 0 -69 60 -133 124 -133 67 0
136 68 136 134 0 46 -30 93 -75 115 -51 26 -59 26 -112 2z"/>
<path d="M4214 9764 c-40 -19 -64 -62 -64 -113 0 -74 51 -121 129 -121 33 0
47 7 76 35 31 32 35 41 35 88 -1 100 -87 155 -176 111z"/>
<path d="M8754 9761 c-142 -65 -46 -278 99 -218 110 46 87 204 -33 231 -15 4
-42 -2 -66 -13z"/>
<path d="M3653 9751 c-34 -16 -44 -27 -54 -59 -24 -80 24 -147 106 -147 55 0
92 26 105 75 26 98 -64 173 -157 131z"/>
<path d="M9298 9732 c-27 -25 -31 -36 -31 -76 0 -39 5 -52 30 -78 53 -53 136
-38 168 29 51 107 -78 203 -167 125z"/>
<path d="M3100 9743 c-70 -26 -79 -142 -14 -172 95 -43 176 37 133 132 -17 38
-73 57 -119 40z"/>
<path d="M9901 9737 c-14 -6 -33 -27 -44 -44 -52 -90 70 -178 144 -104 47 48
35 118 -28 150 -28 14 -42 14 -72 -2z"/>
<path d="M2511 9704 c-26 -33 -27 -75 -2 -105 14 -18 29 -24 61 -24 50 0 80
30 80 79 0 71 -96 105 -139 50z"/>
<path d="M10455 9705 c-49 -48 -16 -125 52 -125 37 0 73 38 73 77 0 32 -42 73
-75 73 -14 0 -37 -11 -50 -25z"/>
<path d="M1982 9709 c-12 -5 -27 -20 -34 -34 -10 -22 -8 -30 9 -53 25 -33 47
-38 77 -18 61 39 17 130 -52 105z"/>
<path d="M11042 9694 c-37 -26 -20 -94 24 -94 44 0 70 50 46 86 -13 20 -47 24
-70 8z"/>
<path d="M1409 9674 c-17 -21 0 -49 32 -49 27 0 37 28 19 50 -16 19 -34 19
-51 -1z"/>
<path d="M11614 9665 c-8 -19 3 -35 26 -35 22 0 33 23 17 39 -15 15 -37 14
-43 -4z"/>
<path d="M6207 9515 c-168 -58 -128 -300 49 -297 83 1 144 57 151 139 9 110
-97 194 -200 158z"/>
<path d="M5076 9510 c-106 -32 -136 -174 -52 -248 59 -52 141 -50 198 5 79 76
44 213 -63 243 -39 11 -44 11 -83 0z"/>
<path d="M5611 9501 c-95 -51 -93 -218 3 -264 49 -23 113 -22 153 3 38 22 73
86 73 130 0 44 -35 108 -73 130 -40 25 -110 25 -156 1z"/>
<path d="M6714 9476 c-43 -42 -44 -45 -44 -106 0 -61 1 -64 44 -106 42 -43 45
-44 106 -44 61 0 64 1 106 44 43 42 44 45 44 106 0 61 -1 64 -44 106 -42 43
-45 44 -106 44 -61 0 -64 -1 -106 -44z"/>
<path d="M7320 9502 c-50 -25 -80 -75 -80 -132 0 -155 205 -207 277 -70 29 54
29 86 0 140 -39 74 -122 100 -197 62z"/>
<path d="M4503 9499 c-89 -26 -115 -159 -44 -229 60 -60 185 -40 216 34 33 79
9 156 -57 186 -47 21 -67 23 -115 9z"/>
<path d="M7874 9491 c-36 -22 -64 -75 -64 -121 0 -46 28 -99 64 -121 42 -26
119 -25 161 1 33 20 65 80 65 120 0 40 -32 100 -65 120 -42 26 -119 27 -161 1z"/>
<path d="M3930 9478 c-117 -59 -76 -231 56 -231 74 0 127 52 126 124 -2 98
-93 151 -182 107z"/>
<path d="M8429 9461 c-35 -35 -39 -44 -39 -91 0 -47 4 -56 39 -91 34 -34 44
-39 85 -39 87 0 136 47 136 130 0 83 -49 130 -136 130 -41 0 -51 -5 -85 -39z"/>
<path d="M9022 9470 c-19 -12 -40 -37 -49 -57 -32 -78 29 -163 117 -163 36 0
48 6 81 39 33 33 39 45 39 81 0 36 -6 48 -39 81 -32 32 -46 39 -77 39 -22 0
-54 -9 -72 -20z"/>
<path d="M3361 9466 c-69 -38 -67 -162 4 -194 82 -37 165 12 165 98 0 87 -92
139 -169 96z"/>
<path d="M9620 9473 c-8 -3 -27 -17 -42 -31 -23 -21 -28 -34 -28 -72 0 -39 5
-51 31 -76 24 -23 39 -29 75 -29 39 0 50 5 75 33 39 44 40 99 2 142 -28 31
-81 46 -113 33z"/>
<path d="M2785 9435 c-19 -18 -25 -35 -25 -65 0 -58 33 -90 95 -90 31 0 51 6
65 20 38 38 38 102 0 140 -30 30 -103 27 -135 -5z"/>
<path d="M10174 9449 c-61 -31 -55 -134 8 -160 41 -17 99 -2 116 31 15 30 9
97 -11 117 -19 19 -86 26 -113 12z"/>
<path d="M2250 9437 c-53 -27 -51 -109 3 -135 55 -27 107 6 107 66 0 43 -7 55
-37 71 -28 14 -42 14 -73 -2z"/>
<path d="M10752 9433 c-7 -3 -19 -18 -27 -34 -14 -26 -14 -32 -1 -58 16 -31
34 -41 71 -41 26 0 65 42 65 70 0 30 -39 70 -68 69 -15 0 -33 -3 -40 -6z"/>
<path d="M1682 9407 c-28 -30 -28 -48 1 -75 30 -28 48 -28 75 1 28 30 28 48
-1 75 -30 28 -48 28 -75 -1z"/>
<path d="M11328 9409 c-26 -15 -23 -65 3 -80 34 -18 69 3 69 40 0 42 -36 62
-72 40z"/>
<path d="M1127 9386 c-10 -26 4 -47 27 -44 15 2 21 10 21 28 0 29 -38 41 -48
16z"/>
<path d="M11904 9379 c-10 -17 13 -36 27 -22 12 12 4 33 -11 33 -5 0 -12 -5
-16 -11z"/>
<path d="M5355 9235 c-114 -41 -145 -180 -59 -262 107 -100 276 -18 262 127
-10 105 -107 169 -203 135z"/>
<path d="M5905 9236 c-113 -51 -128 -215 -26 -283 25 -17 48 -23 91 -23 105 0
164 65 157 173 -3 47 -9 63 -33 88 -52 56 -125 73 -189 45z"/>
<path d="M6457 9227 c-55 -34 -77 -72 -77 -136 0 -104 55 -161 155 -161 71 0
117 26 145 81 56 108 -11 227 -132 236 -43 3 -60 -1 -91 -20z"/>
<path d="M7030 9227 c-88 -46 -114 -155 -56 -232 35 -46 74 -65 133 -65 174 0
217 237 56 306 -46 20 -84 17 -133 -9z"/>
<path d="M7625 9235 c-136 -48 -147 -230 -18 -287 83 -37 168 -4 205 79 53
120 -65 250 -187 208z"/>
<path d="M4774 9221 c-75 -34 -106 -127 -68 -207 49 -103 210 -99 265 6 39 72
9 164 -65 199 -52 26 -79 26 -132 2z"/>
<path d="M8197 9225 c-76 -26 -117 -94 -103 -168 18 -97 136 -149 216 -94 52
35 73 70 73 120 0 103 -94 175 -186 142z"/>
<path d="M4215 9216 c-52 -23 -78 -60 -82 -118 -5 -69 20 -112 83 -140 41 -18
51 -19 90 -8 130 37 141 213 17 266 -40 17 -69 17 -108 0z"/>
<path d="M3666 9210 c-107 -33 -123 -185 -25 -236 15 -7 47 -14 70 -14 35 0
48 6 80 39 95 95 4 250 -125 211z"/>
<path d="M8745 9210 c-42 -17 -68 -58 -73 -114 -4 -52 -3 -56 36 -98 38 -41
43 -43 96 -43 51 0 59 3 92 36 87 87 30 230 -91 228 -22 0 -49 -4 -60 -9z"/>
<path d="M9314 9191 c-44 -27 -64 -59 -64 -102 0 -73 80 -141 146 -125 15 4
42 22 61 41 28 28 33 40 33 80 0 42 -5 52 -39 86 -45 45 -86 51 -137 20z"/>
<path d="M3084 9186 c-23 -10 -36 -26 -49 -59 -17 -44 -16 -47 1 -84 23 -47
76 -76 122 -67 104 21 123 170 27 210 -42 17 -61 17 -101 0z"/>
<path d="M9877 9179 c-24 -14 -47 -62 -47 -100 0 -22 10 -41 34 -65 46 -46
104 -48 147 -5 24 25 29 38 29 78 0 67 -36 103 -101 103 -24 0 -52 -5 -62 -11z"/>
<path d="M2507 9152 c-40 -41 -38 -101 4 -136 17 -15 43 -26 59 -26 16 0 42
11 59 26 26 22 31 33 31 70 0 36 -5 50 -26 69 -38 35 -92 34 -127 -3z"/>
<path d="M10441 9144 c-47 -60 -10 -144 64 -144 49 0 85 36 85 85 0 50 -36 85
-89 85 -31 0 -44 -6 -60 -26z"/>
<path d="M1952 9137 c-45 -48 -11 -127 55 -127 32 0 73 42 73 75 0 35 -42 75
-78 75 -17 0 -37 -9 -50 -23z"/>
<path d="M11026 9134 c-40 -40 -8 -114 49 -114 26 0 65 43 65 71 0 48 -80 78
-114 43z"/>
<path d="M1408 9128 c-31 -24 -27 -75 8 -88 51 -20 90 29 60 75 -18 27 -43 32
-68 13z"/>
<path d="M11613 9122 c-25 -16 -19 -68 9 -75 30 -8 58 9 58 36 0 38 -35 59
-67 39z"/>
<path d="M853 9094 c-8 -21 13 -42 28 -27 13 13 5 43 -11 43 -6 0 -13 -7 -17
-16z"/>
<path d="M5630 8963 c-60 -23 -110 -94 -110 -158 0 -76 52 -143 128 -166 113
-34 237 90 203 203 -15 48 -56 97 -98 114 -32 14 -95 17 -123 7z"/>
<path d="M6171 8953 c-71 -35 -106 -130 -77 -208 53 -137 239 -152 308 -25 26
48 21 143 -10 187 -43 60 -148 82 -221 46z"/>
<path d="M6723 8941 c-94 -68 -98 -191 -10 -268 65 -57 151 -56 216 3 50 44
65 82 59 145 -9 91 -74 149 -168 149 -47 0 -64 -5 -97 -29z"/>
<path d="M7310 8948 c-152 -79 -92 -314 81 -311 91 1 163 73 163 162 -1 128
-131 208 -244 149z"/>
<path d="M5029 8937 c-49 -33 -71 -80 -66 -145 4 -56 24 -91 71 -126 39 -29
133 -29 173 0 47 35 73 82 73 133 0 99 -62 161 -160 161 -43 0 -66 -6 -91 -23z"/>
<path d="M7870 8938 c-20 -13 -45 -44 -59 -72 -22 -44 -23 -53 -13 -93 17 -62
37 -89 86 -113 54 -26 81 -25 136 3 59 29 90 76 90 136 0 95 -53 152 -147 159
-48 3 -64 0 -93 -20z"/>
<path d="M3951 8939 c-18 -4 -47 -21 -64 -38 -26 -25 -31 -40 -35 -90 -4 -58
-3 -61 35 -101 32 -34 47 -43 83 -47 90 -9 155 51 155 143 0 48 -4 57 -36 90
-40 39 -86 54 -138 43z"/>
<path d="M4461 8923 c-61 -48 -77 -123 -41 -193 69 -135 284 -83 284 67 -1 97
-57 153 -154 153 -44 0 -62 -5 -89 -27z"/>
<path d="M8460 8939 c-61 -25 -98 -97 -85 -166 9 -47 59 -101 106 -113 88 -24
175 36 185 126 12 115 -97 196 -206 153z"/>
<path d="M9035 8930 c-11 -4 -33 -22 -50 -39 -25 -27 -29 -39 -29 -86 0 -50 3
-58 39 -95 36 -37 43 -40 93 -40 50 0 58 3 93 39 38 38 45 57 39 121 -7 77
-109 132 -185 100z"/>
<path d="M3362 8915 c-47 -21 -77 -89 -62 -144 32 -121 206 -123 239 -3 18 63
-10 125 -66 148 -41 17 -69 17 -111 -1z"/>
<path d="M9602 8912 c-68 -36 -90 -108 -52 -169 56 -92 184 -78 220 25 14 40
13 45 -5 80 -22 41 -77 82 -109 82 -12 -1 -36 -9 -54 -18z"/>
<path d="M2820 8909 c-68 -28 -94 -91 -64 -154 34 -73 127 -85 178 -24 35 41
40 69 23 112 -24 56 -87 86 -137 66z"/>
<path d="M10155 8879 c-30 -27 -35 -37 -35 -74 0 -94 106 -141 171 -76 64 65
17 181 -73 181 -16 0 -41 -12 -63 -31z"/>
<path d="M2255 8891 c-99 -41 -68 -181 40 -181 35 0 85 50 85 85 0 38 -24 79
-55 93 -30 14 -42 14 -70 3z"/>
<path d="M10755 8880 c-64 -25 -69 -121 -9 -149 78 -35 149 33 118 114 -7 17
-55 45 -76 44 -7 0 -22 -4 -33 -9z"/>
<path d="M1666 8848 c-36 -51 -7 -108 54 -108 29 0 43 6 54 22 36 51 7 108
-54 108 -29 0 -43 -6 -54 -22z"/>
<path d="M11316 8849 c-32 -25 -33 -59 -3 -87 30 -28 58 -28 85 1 28 30 28 52
-3 82 -29 30 -45 31 -79 4z"/>
<path d="M1122 8838 c-15 -15 -15 -51 0 -66 27 -27 78 -7 78 29 0 39 -52 63
-78 37z"/>
<path d="M11896 8825 c-20 -20 -5 -55 23 -55 28 0 47 28 34 48 -14 23 -38 26
-57 7z"/>
<path d="M5905 8681 c-117 -53 -145 -186 -58 -281 66 -74 164 -77 239 -8 79
72 83 167 12 244 -59 64 -121 78 -193 45z"/>
<path d="M6460 8678 c-78 -40 -114 -121 -91 -208 15 -54 42 -86 96 -111 47
-22 73 -23 128 -7 89 27 142 124 117 214 -16 57 -63 106 -117 122 -57 17 -83
15 -133 -10z"/>
<path d="M7046 8685 c-54 -19 -94 -61 -111 -117 -46 -155 132 -284 268 -194
39 26 77 98 77 146 0 42 -29 108 -58 133 -23 21 -87 46 -117 46 -11 0 -37 -6
-59 -14z"/>
<path d="M5315 8667 c-47 -26 -85 -92 -85 -147 0 -55 38 -121 85 -147 83 -47
196 -19 235 57 44 86 15 202 -60 240 -53 27 -124 26 -175 -3z"/>
<path d="M7605 8677 c-17 -8 -45 -30 -62 -50 -58 -66 -56 -151 4 -218 42 -46
93 -64 155 -55 35 5 54 16 89 52 44 44 44 46 44 114 0 69 0 70 -46 115 -40 41
-51 47 -100 51 -34 3 -65 -1 -84 -9z"/>
<path d="M4752 8660 c-70 -43 -94 -147 -53 -228 51 -100 229 -95 281 8 41 81
14 182 -60 220 -51 26 -125 26 -168 0z"/>
<path d="M8162 8663 c-111 -54 -110 -234 1 -287 44 -20 109 -21 147 -1 16 8
42 32 57 52 23 30 28 46 28 93 0 47 -5 63 -28 93 -15 20 -41 44 -57 52 -38 20
-106 19 -148 -2z"/>
<path d="M4205 8661 c-11 -5 -33 -23 -50 -41 -27 -29 -30 -37 -30 -100 0 -67
1 -71 38 -107 36 -37 40 -38 107 -38 67 0 71 1 107 38 37 36 38 40 38 107 0
67 -1 71 -37 107 -33 33 -43 37 -95 40 -32 1 -67 -1 -78 -6z"/>
<path d="M8750 8659 c-103 -41 -128 -175 -45 -248 85 -74 214 -37 243 72 32
115 -86 220 -198 176z"/>
<path d="M3644 8650 c-31 -12 -72 -66 -80 -105 -8 -45 10 -95 46 -130 42 -41
121 -47 170 -13 85 58 86 178 1 235 -35 24 -96 30 -137 13z"/>
<path d="M9279 8611 c-35 -35 -39 -44 -39 -91 0 -47 4 -56 39 -91 34 -34 44
-39 85 -39 87 0 136 47 136 130 0 83 -49 130 -136 130 -41 0 -51 -5 -85 -39z"/>
<path d="M3068 8622 c-30 -18 -58 -67 -58 -102 0 -36 31 -90 61 -105 15 -8 48
-15 73 -15 39 0 51 5 81 35 31 31 35 42 35 85 0 43 -4 54 -35 85 -31 30 -42
35 -83 35 -26 0 -59 -8 -74 -18z"/>
<path d="M9878 8620 c-69 -37 -76 -153 -12 -195 70 -46 156 -17 183 60 12 35
11 45 -2 77 -28 68 -103 94 -169 58z"/>
<path d="M2495 8595 c-20 -19 -25 -34 -25 -75 0 -71 29 -100 100 -100 71 0
100 29 100 100 0 71 -29 100 -100 100 -41 0 -56 -5 -75 -25z"/>
<path d="M10438 8591 c-27 -24 -33 -36 -33 -71 0 -35 6 -47 33 -71 56 -50 129
-33 158 37 12 29 12 39 0 68 -29 70 -102 87 -158 37z"/>
<path d="M1940 8580 c-44 -44 -15 -138 43 -141 46 -3 63 3 85 27 28 31 28 73
1 108 -27 34 -98 37 -129 6z"/>
<path d="M11040 8593 c-27 -10 -40 -36 -40 -79 0 -48 13 -63 63 -71 68 -11
114 73 70 126 -19 22 -67 34 -93 24z"/>
<path d="M1407 8574 c-48 -26 -47 -83 2 -108 55 -29 113 35 78 87 -20 31 -47
38 -80 21z"/>
<path d="M11618 8569 c-44 -25 -43 -75 3 -99 53 -29 96 60 47 94 -26 19 -27
19 -50 5z"/>
<path d="M846 8544 c-9 -8 -16 -19 -16 -24 0 -11 29 -40 40 -40 11 0 40 29 40
40 0 11 -29 40 -40 40 -5 0 -16 -7 -24 -16z"/>
<path d="M12184 8536 c-9 -24 4 -48 23 -44 12 2 18 12 18 28 0 29 -32 41 -41
16z"/>
<path d="M5071 8405 c-79 -25 -124 -86 -124 -171 0 -114 108 -195 221 -165 81
22 125 81 125 166 0 85 -46 146 -127 170 -27 8 -50 15 -50 14 -1 0 -21 -6 -45
-14z"/>
<path d="M5615 8403 c-74 -39 -105 -88 -105 -165 0 -68 31 -125 85 -155 47
-27 131 -31 173 -9 56 29 102 101 102 159 0 129 -147 227 -255 170z"/>
<path d="M6175 8403 c-44 -23 -65 -44 -86 -85 -40 -78 -11 -186 63 -235 48
-33 135 -37 186 -9 19 9 36 15 39 12 3 -3 -2 -24 -12 -48 -12 -30 -16 -63 -13
-113 3 -70 3 -70 -22 -66 -40 8 -122 6 -159 -4 -33 -8 -34 -7 -27 16 35 115 2
209 -88 250 -77 35 -155 22 -214 -34 -60 -57 -77 -132 -47 -203 12 -30 12 -36
0 -40 -7 -3 -22 -1 -34 5 -30 16 -128 13 -162 -5 -17 -8 -33 -13 -36 -11 -2 3
3 27 12 54 45 130 -39 247 -177 247 -139 -1 -219 -143 -154 -272 41 -81 149
-116 237 -76 48 21 55 15 35 -25 -19 -35 -23 -96 -12 -160 8 -43 8 -44 -15
-36 -54 17 -121 17 -160 -1 -22 -9 -42 -14 -45 -11 -3 3 2 29 11 57 19 58 16
91 -16 156 -18 35 -32 47 -81 69 -46 21 -68 25 -96 20 -92 -17 -164 -95 -166
-180 -2 -66 37 -138 88 -162 67 -33 101 -37 156 -17 27 10 53 15 56 11 4 -4
-1 -25 -11 -46 -17 -40 -17 -101 1 -159 7 -23 6 -23 -42 -16 -62 10 -99 8
-147 -7 -47 -15 -53 -9 -32 31 24 47 21 109 -8 167 -45 89 -163 121 -252 69
-60 -36 -88 -84 -89 -155 -1 -72 30 -130 88 -162 47 -27 123 -31 174 -10 18 8
35 12 37 9 3 -3 -2 -22 -11 -43 -16 -39 -15 -124 1 -174 8 -22 6 -23 -21 -17
-112 25 -149 19 -206 -32 -48 -44 -68 -85 -68 -144 1 -105 77 -183 179 -183
31 0 69 4 85 9 29 9 29 9 21 -25 -9 -32 -10 -105 -3 -159 l3 -25 -76 3 c-56 3
-85 0 -108 -12 -42 -22 -55 -12 -34 27 44 84 7 206 -74 246 -166 80 -332 -82
-252 -247 31 -62 84 -95 157 -96 36 0 69 6 90 18 43 22 50 15 29 -29 -22 -45
-22 -137 -1 -181 21 -44 15 -50 -27 -28 -19 9 -56 17 -85 17 -141 0 -226 -142
-162 -270 62 -124 258 -129 321 -8 26 50 28 137 4 182 -21 39 -8 51 29 26 29
-19 120 -24 168 -9 28 9 29 8 22 -20 -17 -74 -18 -111 -2 -148 9 -21 14 -42
11 -47 -3 -4 -25 -1 -48 7 -83 30 -188 -11 -226 -89 -67 -139 30 -288 178
-274 31 3 68 9 83 13 l28 6 -16 -38 c-23 -54 -15 -141 17 -188 28 -42 108 -86
155 -86 17 0 51 7 74 15 24 8 45 14 47 12 2 -2 -4 -23 -12 -47 -8 -23 -15 -57
-15 -74 0 -47 44 -127 86 -155 46 -32 134 -40 186 -18 20 8 39 13 41 10 3 -2
-1 -20 -9 -38 -29 -70 -9 -171 42 -216 61 -54 150 -64 224 -26 35 17 51 34 73
77 29 56 30 80 11 164 -7 29 -7 29 27 21 32 -9 105 -10 159 -3 20 2 24 -1 22
-17 -13 -88 -13 -113 2 -150 21 -49 10 -60 -39 -39 -80 33 -184 -2 -224 -76
-71 -128 15 -280 158 -280 130 0 217 121 176 244 -9 26 -14 50 -11 53 3 3 19
0 36 -7 40 -17 116 -17 162 0 21 8 40 11 43 8 3 -3 -2 -21 -10 -41 -27 -64
-13 -150 33 -200 47 -52 147 -72 215 -43 45 18 91 74 107 130 11 42 11 52 -7
101 -11 30 -18 56 -16 59 3 2 20 -2 38 -10 45 -18 126 -18 172 1 20 8 38 13
41 11 2 -3 -3 -23 -12 -46 -25 -63 -21 -119 13 -173 99 -155 337 -90 335 93 0
70 -30 130 -81 160 -48 29 -142 32 -190 6 -39 -20 -43 -9 -17 44 13 25 15 49
10 107 -6 75 -6 75 17 69 57 -16 104 -17 145 -3 50 17 58 10 42 -39 -28 -85
14 -185 92 -223 111 -53 232 4 268 125 11 35 10 50 -5 95 -23 69 -57 102 -127
124 -51 16 -59 17 -101 2 -27 -9 -49 -12 -52 -7 -3 5 -1 29 6 52 6 24 8 66 5
98 l-6 55 82 0 c46 1 94 5 107 9 22 9 24 7 17 -20 -20 -85 -19 -112 7 -168 23
-50 33 -59 79 -81 61 -29 104 -31 156 -9 108 45 151 160 99 264 -18 35 -34 51
-77 73 -59 30 -92 33 -151 15 -22 -6 -42 -9 -45 -5 -3 3 2 26 11 51 17 43 17
74 0 132 -6 21 -4 22 77 22 45 0 94 2 108 4 18 2 24 -1 21 -12 -14 -53 -12
-124 4 -165 20 -53 49 -78 117 -101 42 -14 57 -15 92 -4 58 17 105 56 127 104
57 126 -26 261 -160 261 -31 0 -69 -4 -85 -9 l-29 -9 9 39 c8 36 9 99 2 164
-2 18 1 24 12 21 53 -14 124 -12 166 4 25 9 48 15 50 12 3 -3 -2 -17 -12 -32
-26 -39 -24 -129 4 -182 43 -83 173 -115 256 -64 156 97 86 341 -98 341 -25 0
-61 -8 -81 -17 -19 -9 -37 -14 -40 -11 -3 3 2 21 10 41 19 46 19 127 1 172
-15 36 -6 56 17 37 7 -6 31 -15 55 -22 89 -23 185 34 217 131 15 43 16 58 5
93 -34 116 -151 175 -257 131 -20 -8 -38 -13 -41 -10 -3 3 0 22 8 43 17 46 17
122 0 162 -7 17 -10 33 -7 36 3 3 27 -2 53 -11 90 -30 182 7 224 90 31 63 31
118 -1 176 -48 87 -164 119 -256 71 -73 -38 -108 -138 -79 -222 8 -25 12 -48
7 -53 -4 -4 -25 0 -46 9 -35 14 -79 15 -150 3 -16 -3 -19 1 -17 21 7 54 6 127
-3 159 -8 34 -8 34 21 27 84 -19 108 -18 164 11 43 22 60 38 78 73 66 131 -20
280 -163 280 -25 0 -61 -6 -80 -14 -18 -8 -36 -12 -38 -9 -3 2 1 20 9 38 32
77 6 188 -53 231 -61 44 -123 54 -193 29 -24 -8 -44 -14 -46 -12 -2 1 4 23 12
47 31 88 1 179 -73 230 -46 31 -128 38 -184 16 l-41 -17 6 28 c4 15 10 53 13
84 11 112 -70 199 -183 199 -93 0 -156 -50 -184 -146 -10 -34 -10 -50 3 -92 8
-28 12 -53 10 -56 -3 -2 -25 3 -50 11 -42 15 -72 14 -147 -3 -27 -6 -29 -5
-22 17 19 61 18 116 -2 162 -11 25 -18 48 -15 51 3 3 20 -2 37 -11 44 -24 131
-22 181 4 121 63 116 262 -8 322 -129 63 -270 -23 -270 -163 0 -34 7 -65 19
-84 23 -40 14 -49 -30 -28 -44 21 -136 21 -181 -1 -43 -21 -53 -12 -30 24 28
43 26 138 -3 186 -48 76 -161 110 -237 70z m-247 -634 c33 -9 50 -9 87 1 25 7
48 10 52 7 3 -4 1 -31 -5 -61 -7 -35 -8 -66 -2 -87 5 -18 7 -35 5 -38 -3 -2
-47 -5 -98 -6 l-94 -1 1 71 c0 38 -3 85 -8 104 -8 29 -7 33 6 28 9 -3 34 -11
56 -18z m1285 -16 c-11 -28 -14 -57 -10 -108 l5 -70 -96 2 c-54 0 -99 3 -100
5 -2 1 -1 25 3 51 5 30 3 65 -5 93 -7 24 -10 47 -7 50 3 4 29 0 57 -7 44 -11
57 -11 93 3 23 8 50 16 59 17 16 1 16 -2 1 -36z m-678 12 c28 0 63 4 79 9 l29
9 -9 -34 c-5 -19 -8 -63 -7 -99 l1 -65 -89 0 c-49 0 -89 2 -89 5 0 3 -2 47 -4
98 -4 92 -4 93 17 85 12 -4 45 -8 72 -8z m-832 -284 c67 3 72 2 69 -16 -2 -11
-4 -51 -5 -88 l-2 -69 -88 -2 -88 -3 6 47 c4 26 1 66 -5 89 -13 50 -7 65 22
50 11 -6 52 -9 91 -8z m1790 -18 c-11 -28 -14 -55 -9 -104 l6 -66 -83 4 c-45
2 -88 5 -95 6 -9 1 -13 28 -15 94 l-3 92 66 -6 c36 -3 76 0 90 5 14 6 33 11
42 11 16 1 16 -2 1 -36z m-581 -69 l-3 -81 -82 2 -82 2 0 49 c0 27 -4 64 -9
82 l-8 33 59 -6 c32 -3 72 -2 88 3 17 5 32 7 35 3 3 -3 4 -42 2 -87z m-578 7
c-2 -40 -6 -76 -9 -79 -2 -3 -37 -5 -77 -5 l-73 0 -1 59 c0 32 -3 68 -7 79 -7
20 -3 21 82 20 l89 0 -4 -74z m1450 -208 c-5 -16 -9 -66 -8 -111 l0 -84 -30 8
c-34 9 -107 10 -146 3 -21 -3 -24 -1 -20 16 7 30 5 137 -4 162 -8 21 -7 21 72
16 49 -4 86 -2 98 5 34 20 47 15 38 -15z m-2358 4 l61 2 -3 -87 -2 -87 -69 -2
c-37 -1 -77 -3 -88 -5 -18 -3 -19 2 -16 69 1 39 -2 80 -8 91 -14 26 -3 34 34
25 16 -4 57 -7 91 -6z m1762 -88 l-3 -74 -74 0 -74 1 -3 77 -2 76 71 3 c40 2
76 0 80 -3 4 -3 7 -39 5 -80z m-1150 4 l3 -71 -73 2 -73 1 -3 59 c-2 32 -1 64
2 71 3 8 27 11 73 10 l68 -1 3 -71z m567 5 l-4 -63 -63 0 -63 0 -6 55 c-3 30
-4 58 -2 63 2 4 35 7 73 7 l69 0 -4 -62z m-1459 -205 l61 6 -1 -94 c-1 -52 -4
-96 -7 -99 -3 -3 -21 -1 -40 4 -23 7 -50 7 -87 -2 -28 -6 -55 -9 -58 -5 -3 3
-1 28 6 55 11 42 11 56 -3 97 -9 26 -14 51 -12 56 3 4 22 1 43 -8 26 -11 54
-14 98 -10z m2335 -19 c-2 -10 -4 -50 -4 -87 l0 -68 -80 3 -80 3 0 75 0 75 66
6 c37 3 70 9 74 13 12 12 28 -1 24 -20z m-1735 -72 l2 -73 -71 3 -71 3 -2 65
c0 36 1 69 3 73 3 4 35 7 71 5 l67 -3 1 -73z m542 62 c19 -5 22 -13 22 -54 0
-34 -4 -50 -16 -54 -26 -10 -82 -7 -90 5 -8 14 -14 90 -8 101 6 9 59 10 92 2z
m600 -51 l-3 -58 -54 -3 c-60 -4 -71 4 -71 55 0 57 7 63 72 63 l59 0 -3 -57z
m886 -201 c3 -5 0 -27 -6 -49 -7 -28 -7 -56 0 -90 6 -26 10 -48 9 -49 -1 -1
-43 0 -93 3 l-90 6 0 86 1 86 50 -3 c28 -2 61 1 75 7 31 12 47 13 54 3z
m-2359 -16 l59 -1 0 -73 c-1 -40 -3 -74 -5 -76 -2 -2 -37 -5 -78 -7 l-74 -4
-2 88 c-2 84 -1 87 19 80 12 -3 48 -7 81 -7z m1763 -73 l-3 -68 -60 0 -60 0 0
60 0 60 45 6 c88 12 81 17 78 -58z m-1169 43 c12 -8 15 -64 5 -90 -9 -25 -90
-22 -104 3 -11 22 -14 84 -4 94 8 8 88 2 103 -7z m576 -33 c-9 -49 -15 -55
-56 -51 -29 3 -34 7 -37 31 -6 48 3 57 54 57 l46 0 -7 -37z m1490 -200 c-5
-10 -13 -40 -19 -66 -8 -40 -7 -57 8 -99 9 -27 16 -52 13 -54 -2 -2 -21 3 -42
12 -27 11 -61 15 -109 12 -59 -2 -70 -1 -67 12 11 41 12 122 3 149 -6 17 -8
33 -4 35 4 2 28 0 54 -4 32 -6 61 -5 94 4 70 19 77 19 69 -1z m-2871 -101 l1
-90 -65 1 c-36 1 -80 -2 -99 -7 -33 -9 -34 -8 -27 15 15 49 18 108 8 137 -6
17 -9 32 -6 34 2 3 45 4 96 3 l91 -2 1 -91z m2270 0 l-2 -77 -68 4 c-38 2 -72
5 -75 7 -12 7 -7 123 5 133 11 9 109 19 131 13 6 -1 9 -35 9 -80z m-1746 62
c9 -3 12 -21 10 -65 l-3 -60 -62 -4 -63 -4 0 68 c0 37 2 70 5 73 6 6 89 0 113
-8z m1149 -16 c8 -11 9 -40 4 -90 -1 -5 -21 -8 -46 -8 -39 0 -45 3 -51 25 -11
45 3 73 39 78 17 2 35 5 38 5 4 1 11 -4 16 -10z m-592 -42 c0 -35 -3 -40 -30
-48 -44 -12 -55 -4 -55 40 0 48 6 54 50 50 34 -3 35 -5 35 -42z m1487 -286 c0
-52 -1 -98 -1 -101 -1 -3 -23 0 -50 7 -32 8 -62 9 -87 4 -21 -5 -41 -7 -45 -4
-4 2 -3 21 2 41 5 21 6 62 3 91 l-6 52 53 -6 c30 -3 65 -1 79 5 49 20 52 13
52 -89z m-2308 76 c5 -1 10 -38 11 -82 l2 -80 -66 -1 c-36 -1 -75 -3 -86 -4
-14 -3 -19 0 -16 11 3 8 5 49 5 91 l-1 76 71 -4 c39 -3 75 -6 80 -7z m1704
-20 c7 -4 12 -33 12 -72 l0 -64 -54 0 c-83 0 -85 2 -79 73 3 34 9 64 14 67 11
7 94 5 107 -4z m-1161 -4 c6 -4 13 -29 14 -55 4 -58 -6 -67 -73 -67 l-48 0 0
59 c0 38 4 61 13 64 19 8 81 8 94 -1z m581 -64 c2 -29 -1 -48 -7 -49 -42 -3
-79 -1 -89 5 -13 8 -4 78 12 89 6 4 27 6 46 5 34 -3 35 -4 38 -50z m-1468
-182 c25 0 55 2 68 4 23 5 23 4 25 -97 l2 -101 -70 5 c-51 4 -80 1 -107 -10
-44 -19 -47 -12 -22 49 15 37 15 63 -2 138 -7 29 -7 29 27 21 19 -5 54 -9 79
-9z m2357 -71 c-1 -33 2 -72 6 -86 l9 -27 -89 4 -88 4 -3 71 c-2 40 -1 77 1
83 3 7 36 11 85 11 l80 1 -1 -61z m-1722 -26 l0 -74 -77 0 c-43 0 -78 3 -78 8
0 4 0 38 0 76 l0 69 77 -2 77 -3 1 -74z m1139 55 c3 -9 6 -40 6 -70 l0 -54
-65 0 c-75 0 -84 9 -77 82 l4 47 51 4 c29 2 57 4 63 5 7 1 15 -5 18 -14z
m-579 -59 l0 -60 -68 -3 -68 -3 6 53 c10 78 8 76 72 74 l58 -1 0 -60z m-828
-192 c1 -5 3 -47 6 -94 l5 -85 -77 0 c-42 1 -89 -3 -105 -8 -28 -9 -29 -8 -20
20 5 16 9 63 8 104 l0 76 90 -3 c50 -1 92 -6 93 -10z m561 -90 l3 -80 -68 0
c-37 0 -77 -2 -88 -4 -14 -3 -19 1 -16 11 2 8 6 42 8 75 2 33 6 65 7 70 2 6
36 10 77 9 l74 -1 3 -80z m1146 -5 l3 -88 -26 8 c-14 4 -53 6 -87 5 l-61 -2 4
82 c1 45 3 83 3 85 0 2 36 2 81 0 l81 -3 2 -87z m-590 74 c2 -4 5 -38 7 -76
l4 -68 -77 -2 c-46 0 -78 3 -79 9 -3 39 4 122 12 131 10 12 126 17 133 6z
m-939 -259 c23 -3 57 -1 78 5 20 6 39 7 41 3 2 -3 -1 -25 -7 -48 -8 -33 -8
-54 2 -93 7 -28 11 -54 8 -57 -3 -3 -28 1 -55 7 -43 11 -57 11 -102 -4 -29 -9
-54 -15 -57 -12 -3 2 1 21 7 42 8 23 10 63 7 107 -6 68 -6 69 16 62 12 -3 40
-9 62 -12z m1249 -78 c1 -44 4 -87 6 -95 4 -11 -2 -14 -20 -12 -35 5 -131 5
-155 1 -16 -3 -19 1 -16 21 1 14 3 56 4 93 l0 69 51 -6 c28 -4 65 -2 81 3 17
5 34 8 39 7 5 -1 9 -38 10 -81z m-574 16 c0 -31 3 -73 7 -95 6 -37 5 -38 -18
-30 -24 9 -116 11 -154 3 -16 -3 -19 1 -17 21 2 14 5 52 7 85 1 33 3 62 4 66
1 3 39 5 86 5 l85 0 0 -55z m213 -219 c29 3 59 7 67 9 13 3 14 -8 12 -67 -3
-53 1 -81 13 -108 10 -20 15 -39 12 -43 -4 -3 -24 2 -47 11 -50 20 -100 20
-147 1 -52 -22 -49 -29 -24 69 6 24 6 58 1 85 -4 25 -6 49 -4 53 2 4 18 2 35
-4 17 -6 54 -8 82 -6z"/>
<path d="M7312 8399 c-64 -32 -95 -79 -100 -150 -4 -49 0 -65 21 -101 36 -63
92 -91 167 -86 71 5 118 37 149 101 28 57 26 92 -5 154 -20 42 -35 57 -77 77
-62 32 -99 33 -155 5z"/>
<path d="M7884 8391 c-99 -45 -131 -159 -70 -251 34 -51 84 -73 155 -68 100 7
151 65 151 171 0 69 -38 126 -99 151 -53 21 -86 20 -137 -3z"/>
<path d="M4473 8379 c-102 -50 -111 -204 -16 -276 44 -34 132 -37 184 -7 77
45 100 167 44 240 -49 65 -134 82 -212 43z"/>
<path d="M8452 8384 c-18 -10 -45 -33 -60 -52 -37 -49 -39 -142 -4 -187 38
-48 72 -65 131 -65 63 0 110 24 140 74 25 40 28 114 6 156 -38 74 -143 110
-213 74z"/>
<path d="M3924 8376 c-53 -24 -84 -74 -84 -137 0 -96 57 -152 153 -153 53 0
88 21 125 74 41 61 22 157 -41 202 -37 26 -111 33 -153 14z"/>
<path d="M9030 8368 c-82 -42 -111 -122 -72 -197 55 -109 209 -105 263 6 36
74 3 158 -74 193 -54 25 -63 25 -117 -2z"/>
<path d="M3375 8365 c-82 -29 -113 -106 -76 -190 15 -34 29 -49 55 -60 81 -34
156 -9 187 61 32 71 11 147 -49 177 -45 23 -75 26 -117 12z"/>
<path d="M9590 8352 c-45 -22 -73 -74 -66 -126 14 -114 142 -162 222 -82 44
44 52 91 25 150 -31 71 -107 96 -181 58z"/>
<path d="M2793 8340 c-60 -36 -79 -108 -44 -166 19 -31 74 -64 108 -64 46 0
123 77 123 123 0 34 -33 89 -64 108 -40 24 -83 24 -123 -1z"/>
<path d="M10144 8316 c-29 -29 -34 -41 -34 -80 0 -36 6 -52 29 -78 26 -29 35
-33 81 -33 46 0 55 4 81 33 24 26 29 41 29 81 0 43 -4 52 -35 80 -51 45 -104
44 -151 -3z"/>
<path d="M2243 8330 c-13 -5 -32 -24 -43 -42 -26 -42 -20 -83 20 -123 62 -62
155 -27 167 63 5 37 2 45 -30 77 -36 36 -68 43 -114 25z"/>
<path d="M10725 8308 c-15 -14 -28 -38 -32 -60 -5 -33 -2 -41 30 -73 45 -45
86 -47 128 -6 85 86 -34 218 -126 139z"/>
<path d="M1693 8313 c-53 -10 -71 -92 -30 -131 51 -48 137 -13 137 55 0 54
-47 87 -107 76z"/>
<path d="M11305 8285 c-48 -47 -19 -119 49 -119 47 0 70 23 70 70 0 68 -72 97
-119 49z"/>
<path d="M1116 8274 c-33 -33 -7 -94 41 -94 25 0 53 30 53 57 0 44 -63 69 -94
37z"/>
<path d="M11878 8255 c-9 -21 -8 -28 7 -45 26 -29 67 -23 79 12 12 35 -6 58
-45 58 -22 0 -32 -7 -41 -25z"/>
<path d="M563 8244 c-3 -8 -1 -20 5 -26 16 -16 42 -2 42 22 0 24 -38 28 -47 4z"/>
<path d="M4764 8111 c-73 -33 -111 -106 -99 -189 13 -87 123 -166 201 -143 81
23 123 63 143 136 14 53 0 104 -42 152 -56 63 -126 79 -203 44z"/>
<path d="M7595 8118 c-32 -17 -76 -61 -91 -90 -36 -68 -4 -179 65 -225 120
-81 280 5 281 151 0 100 -77 176 -180 176 -30 0 -64 -6 -75 -12z"/>
<path d="M8149 8098 c-102 -58 -106 -220 -9 -284 51 -34 100 -40 155 -20 108
42 147 162 82 256 -47 69 -154 92 -228 48z"/>
<path d="M4184 8093 c-101 -50 -97 -231 6 -283 81 -41 182 -14 220 60 42 81
15 189 -54 223 -45 21 -130 21 -172 0z"/>
<path d="M8734 8096 c-67 -30 -104 -111 -84 -183 33 -115 160 -156 254 -82 80
63 77 191 -6 252 -34 26 -121 33 -164 13z"/>
<path d="M3618 8075 c-46 -31 -74 -97 -63 -152 9 -50 69 -109 119 -119 53 -9
123 20 153 65 30 44 31 120 3 166 -41 66 -145 86 -212 40z"/>
<path d="M9305 8080 c-51 -25 -75 -65 -75 -125 0 -86 56 -145 139 -145 87 0
141 54 141 140 0 64 -26 111 -74 134 -45 21 -83 20 -131 -4z"/>
<path d="M3084 8076 c-71 -31 -99 -108 -65 -178 24 -51 65 -78 116 -78 140 0
187 187 63 251 -43 22 -71 23 -114 5z"/>
<path d="M9852 8046 c-34 -32 -37 -39 -37 -90 0 -49 4 -59 33 -89 38 -39 75
-50 123 -37 144 42 113 250 -38 250 -35 0 -50 -6 -81 -34z"/>
<path d="M2495 8039 c-32 -28 -35 -36 -35 -83 0 -46 4 -56 33 -84 27 -26 41
-32 78 -32 38 0 50 5 77 33 27 28 32 40 32 84 0 46 -4 54 -35 82 -27 23 -45
31 -75 31 -30 0 -48 -8 -75 -31z"/>
<path d="M10461 8049 c-96 -43 -86 -164 17 -200 70 -24 160 64 132 130 -14 35
-46 66 -81 79 -20 8 -36 6 -68 -9z"/>
<path d="M1939 8021 c-61 -61 -21 -161 64 -161 98 0 132 131 46 176 -43 22
-77 17 -110 -15z"/>
<path d="M11016 8019 c-21 -16 -26 -29 -26 -63 0 -52 31 -86 77 -86 45 0 62 9
78 41 22 42 18 67 -14 100 -35 35 -77 38 -115 8z"/>
<path d="M1385 8005 c-30 -30 -32 -64 -4 -99 42 -54 129 -19 129 51 0 22 -8
38 -26 52 -35 28 -69 26 -99 -4z"/>
<path d="M11590 7998 c-25 -28 -26 -62 0 -88 43 -43 110 -14 110 48 0 57 -70
82 -110 40z"/>
<path d="M836 7984 c-32 -32 -13 -74 34 -74 30 0 50 16 50 41 0 23 -27 49 -50
49 -10 0 -26 -7 -34 -16z"/>
<path d="M12182 7981 c-8 -4 -12 -19 -10 -32 2 -19 9 -24 33 -24 33 0 45 25
25 50 -14 17 -29 19 -48 6z"/>
<path d="M4511 7840 c-39 -9 -77 -35 -105 -74 -30 -39 -30 -153 0 -192 61 -83
176 -104 253 -46 63 47 86 157 48 230 -33 62 -122 99 -196 82z"/>
<path d="M7867 7829 c-72 -38 -113 -136 -88 -212 49 -147 254 -173 328 -42 29
52 31 131 3 185 -41 81 -157 114 -243 69z"/>
<path d="M8435 7818 c-76 -44 -106 -148 -65 -228 56 -109 212 -122 287 -23 35
45 43 125 18 177 -42 87 -156 122 -240 74z"/>
<path d="M3910 7812 c-53 -26 -80 -74 -80 -142 0 -43 6 -66 23 -91 45 -68 152
-91 217 -46 57 38 75 71 75 137 0 66 -18 99 -75 138 -41 27 -110 29 -160 4z"/>
<path d="M9032 7817 c-99 -31 -133 -169 -62 -251 61 -69 163 -70 227 -4 62 66
64 146 4 212 -47 51 -101 65 -169 43z"/>
<path d="M3376 7810 c-106 -32 -136 -174 -52 -248 59 -52 141 -50 198 5 79 76
44 213 -63 243 -39 11 -44 11 -83 0z"/>
<path d="M9583 7790 c-59 -35 -84 -101 -64 -162 37 -113 192 -132 257 -33 21
33 23 100 4 140 -34 69 -131 96 -197 55z"/>
<path d="M2804 7790 c-31 -12 -72 -66 -79 -104 -13 -65 46 -135 117 -143 76
-7 141 51 141 127 0 89 -96 154 -179 120z"/>
<path d="M10148 7767 c-33 -28 -48 -58 -48 -97 0 -71 53 -120 131 -120 33 0
47 6 75 34 30 30 34 40 34 86 0 46 -4 56 -34 86 -29 29 -41 34 -82 34 -36 0
-56 -6 -76 -23z"/>
<path d="M2245 7771 c-52 -23 -81 -86 -61 -134 19 -45 48 -68 94 -74 35 -5 44
-1 78 30 33 30 39 41 39 76 0 32 -7 47 -31 71 -32 33 -84 46 -119 31z"/>
<path d="M10718 7741 c-27 -24 -33 -36 -33 -71 0 -117 179 -139 201 -24 19
103 -90 165 -168 95z"/>
<path d="M1690 7753 c-37 -14 -50 -36 -50 -83 0 -59 24 -85 81 -85 53 0 82 30
82 85 0 28 -7 48 -19 61 -21 20 -70 32 -94 22z"/>
<path d="M11312 7734 c-66 -46 -36 -143 44 -144 70 0 103 91 50 137 -32 27
-62 29 -94 7z"/>
<path d="M1122 7728 c-46 -23 -41 -98 9 -118 27 -11 33 -11 57 7 39 29 41 74
6 102 -30 23 -39 25 -72 9z"/>
<path d="M11892 7714 c-49 -34 -6 -123 47 -94 46 24 47 75 1 100 -24 13 -21
13 -48 -6z"/>
<path d="M568 7699 c-24 -14 -23 -46 3 -59 37 -20 67 28 37 58 -14 14 -18 14
-40 1z"/>
<path d="M12465 7680 c-9 -15 4 -30 26 -30 12 0 19 7 19 20 0 21 -33 29 -45
10z"/>
<path d="M8165 7551 c-73 -33 -105 -86 -105 -169 1 -126 133 -209 253 -158 74
31 120 124 99 202 -18 66 -40 94 -97 120 -60 29 -97 30 -150 5z"/>
<path d="M4185 7537 c-80 -45 -112 -165 -62 -238 36 -54 82 -79 144 -79 107 0
173 64 173 167 0 96 -76 173 -170 173 -28 0 -60 -9 -85 -23z"/>
<path d="M8758 7548 c-46 -12 -103 -73 -117 -125 -14 -50 1 -103 40 -148 89
-101 264 -54 285 77 21 127 -87 229 -208 196z"/>
<path d="M3669 7543 c-15 -2 -44 -19 -66 -38 -125 -107 -31 -298 133 -272 78
13 130 83 122 167 -9 96 -92 158 -189 143z"/>
<path d="M9298 7519 c-100 -52 -102 -215 -4 -262 47 -22 120 -22 158 1 63 36
88 144 48 209 -23 38 -87 73 -132 73 -18 -1 -50 -10 -70 -21z"/>
<path d="M3085 7520 c-32 -13 -75 -63 -85 -100 -21 -74 35 -159 115 -174 50
-10 120 25 147 74 23 43 19 110 -9 149 -37 50 -114 74 -168 51z"/>
<path d="M9849 7481 c-38 -38 -44 -56 -39 -121 4 -53 67 -110 123 -110 41 0
104 36 122 70 33 64 8 153 -54 185 -17 8 -49 15 -72 15 -35 0 -48 -6 -80 -39z"/>
<path d="M2489 7471 c-34 -34 -39 -44 -39 -85 0 -39 6 -52 34 -84 31 -34 39
-37 86 -37 47 0 55 3 86 37 28 32 34 45 34 84 0 41 -5 51 -39 85 -33 33 -45
39 -81 39 -36 0 -48 -6 -81 -39z"/>
<path d="M10424 7466 c-28 -28 -34 -42 -34 -75 0 -70 51 -121 121 -121 23 0
41 10 70 39 33 33 39 45 39 81 0 34 -6 48 -34 76 -29 29 -41 34 -81 34 -40 0
-52 -5 -81 -34z"/>
<path d="M1933 7455 c-32 -32 -35 -40 -30 -77 12 -90 105 -125 167 -63 40 40
46 81 20 123 -38 62 -105 69 -157 17z"/>
<path d="M11007 7452 c-40 -41 -38 -101 4 -136 37 -32 77 -33 113 -5 38 30 49
64 36 105 -23 68 -104 87 -153 36z"/>
<path d="M1380 7440 c-12 -12 -20 -33 -20 -55 0 -22 8 -43 20 -55 12 -12 33
-20 55 -20 47 0 75 29 75 78 0 25 -7 45 -18 55 -26 24 -87 22 -112 -3z"/>
<path d="M11603 7448 c-12 -6 -27 -23 -33 -38 -14 -34 -2 -61 35 -86 21 -14
30 -14 55 -4 55 23 66 75 25 115 -26 27 -47 30 -82 13z"/>
<path d="M838 7428 c-8 -7 -18 -21 -21 -30 -8 -21 29 -68 53 -68 24 0 61 47
53 68 -8 22 -33 42 -53 42 -9 0 -23 -6 -32 -12z"/>
<path d="M12170 7411 c-5 -11 -10 -24 -10 -30 0 -14 29 -41 45 -41 7 0 21 7
29 16 9 8 16 22 16 29 0 20 -28 45 -50 45 -11 0 -24 -9 -30 -19z"/>
<path d="M283 7394 c-3 -8 -1 -20 6 -27 14 -14 47 15 37 32 -10 16 -36 13 -43
-5z"/>
<path d="M4475 7268 c-88 -48 -128 -153 -89 -231 50 -98 154 -143 237 -101 75
38 107 88 107 166 0 106 -73 178 -180 178 -30 -1 -64 -6 -75 -12z"/>
<path d="M8442 7259 c-52 -26 -92 -81 -99 -138 -4 -31 1 -53 21 -95 22 -46 35
-59 78 -80 65 -32 91 -33 155 0 42 20 57 35 77 77 30 59 32 93 11 144 -20 48
-41 71 -87 94 -49 25 -103 24 -156 -2z"/>
<path d="M3912 7253 c-132 -65 -117 -255 23 -309 39 -14 51 -15 91 -4 92 26
150 118 125 202 -32 104 -145 157 -239 111z"/>
<path d="M9002 7240 c-54 -33 -74 -75 -69 -149 3 -60 6 -66 44 -102 70 -65
159 -65 224 0 67 67 65 157 -6 228 -40 41 -45 43 -101 43 -41 0 -69 -6 -92
-20z"/>
<path d="M3341 7231 c-98 -52 -93 -209 10 -261 49 -25 90 -25 140 0 75 39 101
128 60 208 -34 67 -136 93 -210 53z"/>
<path d="M9595 7236 c-109 -48 -117 -208 -12 -262 72 -38 162 -11 198 58 65
126 -58 260 -186 204z"/>
<path d="M2794 7221 c-49 -30 -74 -68 -74 -115 0 -145 195 -189 255 -57 31 69
-1 148 -71 177 -45 19 -73 18 -110 -5z"/>
<path d="M10161 7218 c-71 -38 -90 -142 -36 -198 58 -61 132 -61 191 1 25 26
29 38 28 85 0 47 -4 59 -31 86 -24 24 -42 32 -80 35 -28 2 -58 -2 -72 -9z"/>
<path d="M2208 7180 c-38 -38 -40 -43 -35 -87 7 -65 49 -103 113 -103 39 0 51
5 80 34 28 28 34 41 34 78 0 50 -18 82 -60 103 -51 26 -88 19 -132 -25z"/>
<path d="M10714 7176 c-40 -40 -45 -83 -14 -133 51 -85 191 -46 194 55 2 102
-108 150 -180 78z"/>
<path d="M1684 7190 c-53 -22 -72 -107 -34 -148 59 -63 160 -26 160 57 0 69
-67 117 -126 91z"/>
<path d="M11295 7165 c-31 -30 -33 -82 -4 -119 16 -21 29 -26 64 -26 35 0 48
5 64 26 47 60 10 144 -64 144 -25 0 -44 -8 -60 -25z"/>
<path d="M1107 7152 c-22 -25 -21 -75 1 -95 25 -22 75 -21 95 1 22 25 21 75
-1 95 -25 22 -75 21 -95 -1z"/>
<path d="M11900 7157 c-35 -18 -46 -41 -34 -74 13 -38 54 -52 88 -29 59 38 9
135 -54 103z"/>
<path d="M554 7126 c-12 -31 0 -51 34 -54 32 -3 33 -2 30 30 -2 28 -7 34 -31
36 -17 2 -29 -2 -33 -12z"/>
<path d="M12460 7106 c0 -29 28 -42 48 -22 20 20 8 46 -23 46 -20 0 -25 -5
-25 -24z"/>
<path d="M4205 6981 c-82 -37 -129 -126 -106 -202 17 -56 74 -116 123 -130 62
-16 114 -3 164 43 50 46 69 98 59 161 -13 73 -104 148 -181 147 -11 0 -37 -9
-59 -19z"/>
<path d="M8720 6967 c-53 -28 -85 -83 -85 -147 0 -129 131 -208 250 -150 55
26 85 80 85 150 0 135 -130 211 -250 147z"/>
<path d="M3635 6966 c-17 -7 -43 -28 -58 -45 -86 -103 -10 -261 125 -261 96 0
158 63 158 160 0 43 -6 66 -23 91 -41 62 -130 86 -202 55z"/>
<path d="M9326 6970 c-42 -13 -95 -68 -107 -112 -28 -104 74 -212 180 -192 47
9 108 67 121 115 21 77 -31 166 -111 189 -39 11 -44 11 -83 0z"/>
<path d="M3057 6942 c-31 -19 -67 -85 -67 -122 0 -38 37 -104 69 -123 37 -22
123 -23 156 -1 85 56 85 192 0 248 -33 22 -122 21 -158 -2z"/>
<path d="M9871 6942 c-96 -53 -91 -202 8 -247 119 -53 242 70 184 184 -37 71
-124 100 -192 63z"/>
<path d="M2513 6929 c-33 -16 -46 -30 -59 -65 -16 -43 -16 -47 2 -92 17 -39
27 -49 67 -66 47 -20 47 -20 94 0 40 17 50 27 67 66 19 45 19 48 1 93 -14 38
-25 51 -59 66 -52 24 -62 23 -113 -2z"/>
<path d="M10465 6933 c-55 -14 -91 -86 -74 -146 15 -56 52 -82 114 -82 43 0
59 5 79 24 51 48 52 133 3 179 -23 21 -86 35 -122 25z"/>
<path d="M1927 6892 c-21 -22 -27 -38 -27 -72 0 -34 6 -50 27 -72 23 -24 35
-28 79 -28 46 0 55 4 78 31 18 21 26 42 26 69 0 27 -8 48 -26 69 -23 27 -32
31 -78 31 -44 0 -56 -4 -79 -28z"/>
<path d="M11000 6890 c-15 -15 -20 -33 -20 -70 0 -69 22 -90 93 -90 70 0 92
22 92 90 0 68 -22 90 -92 90 -40 0 -58 -5 -73 -20z"/>
<path d="M1380 6880 c-66 -66 9 -177 91 -135 54 28 66 89 24 130 -31 31 -86
34 -115 5z"/>
<path d="M11610 6887 c-13 -7 -31 -25 -40 -40 -13 -24 -13 -30 0 -54 9 -15 27
-34 41 -42 22 -12 29 -12 54 0 56 27 59 106 5 134 -35 18 -29 18 -60 2z"/>
<path d="M830 6860 c-11 -11 -20 -29 -20 -40 0 -26 34 -60 60 -60 26 0 60 34
60 60 0 26 -34 60 -60 60 -11 0 -29 -9 -40 -20z"/>
<path d="M12178 6859 c-26 -15 -23 -65 3 -80 34 -18 69 3 69 40 0 42 -36 62
-72 40z"/>
<path d="M284 6835 c-9 -23 4 -47 23 -43 22 4 30 38 11 49 -19 13 -28 11 -34
-6z"/>
<path d="M8456 6704 c-51 -19 -75 -40 -97 -89 -33 -71 -22 -144 29 -198 40
-42 75 -57 134 -57 135 1 216 131 159 255 -23 50 -45 70 -100 90 -52 18 -74
18 -125 -1z"/>
<path d="M3912 6689 c-59 -29 -85 -70 -90 -140 -4 -49 0 -65 21 -102 35 -59
81 -81 157 -75 74 5 121 39 145 103 33 86 -5 178 -89 216 -54 24 -91 24 -144
-2z"/>
<path d="M9047 6697 c-105 -26 -155 -152 -98 -250 43 -75 165 -97 236 -43 42
32 68 84 68 137 0 103 -103 181 -206 156z"/>
<path d="M3340 6667 c-70 -46 -93 -140 -53 -210 20 -35 92 -77 133 -77 41 0
113 42 133 78 26 45 26 125 0 161 -54 72 -147 93 -213 48z"/>
<path d="M9612 6683 c-35 -7 -89 -64 -101 -108 -15 -54 0 -102 44 -145 34 -33
41 -35 100 -35 61 0 67 2 101 36 40 41 57 94 43 142 -11 42 -65 94 -110 107
-35 10 -38 10 -77 3z"/>
<path d="M2814 6669 c-63 -18 -112 -98 -97 -158 29 -123 184 -150 254 -45 66
100 -40 238 -157 203z"/>
<path d="M10163 6649 c-107 -53 -92 -198 24 -237 69 -23 150 30 160 105 8 59
-20 111 -71 134 -52 24 -62 23 -113 -2z"/>
<path d="M2245 6644 c-22 -8 -41 -14 -41 -14 -8 -1 -34 -74 -34 -95 0 -60 55
-115 115 -115 43 0 92 29 106 61 25 62 2 138 -48 157 -53 19 -59 20 -98 6z"/>
<path d="M10743 6636 c-88 -40 -80 -163 14 -202 28 -12 38 -12 68 0 75 32 94
121 38 178 -34 34 -78 43 -120 24z"/>
<path d="M1657 6602 c-40 -41 -38 -101 4 -136 40 -34 80 -34 120 2 24 22 31
36 31 66 0 85 -98 128 -155 68z"/>
<path d="M11291 6594 c-47 -60 -10 -144 64 -144 49 0 85 36 85 85 0 50 -36 85
-89 85 -31 0 -44 -6 -60 -26z"/>
<path d="M1105 6585 c-39 -39 -32 -86 17 -111 24 -13 35 -13 58 -4 37 15 56
60 39 92 -28 53 -75 63 -114 23z"/>
<path d="M11880 6580 c-27 -27 -25 -62 4 -89 32 -30 70 -22 91 19 17 34 9 62
-25 80 -28 15 -48 12 -70 -10z"/>
<path d="M555 6564 c-10 -10 -13 -24 -9 -38 8 -25 5 -22 30 -30 40 -12 71 43
42 72 -17 17 -44 15 -63 -4z"/>
<path d="M12460 6551 c-7 -15 -6 -24 6 -36 19 -18 33 -16 48 7 7 12 6 21 -3
32 -18 22 -38 20 -51 -3z"/>
<path d="M4185 6407 c-22 -12 -50 -37 -62 -56 -91 -135 37 -314 193 -271 57
16 106 63 122 117 17 58 15 83 -13 140 -21 40 -35 56 -70 72 -58 27 -119 27
-170 -2z"/>
<path d="M8709 6397 c-40 -26 -79 -98 -79 -145 0 -62 54 -139 113 -161 71 -27
160 3 204 68 18 26 23 48 23 95 0 71 -22 115 -72 146 -48 29 -144 28 -189 -3z"/>
<path d="M3615 6390 c-133 -85 -71 -300 85 -300 96 0 160 66 160 166 0 66 -19
104 -66 135 -40 26 -138 26 -179 -1z"/>
<path d="M9305 6396 c-99 -43 -122 -178 -44 -255 101 -101 269 -25 269 122 0
11 -9 40 -21 63 -34 71 -128 103 -204 70z"/>
<path d="M3074 6386 c-89 -39 -110 -155 -42 -232 76 -86 217 -51 247 63 31
116 -92 218 -205 169z"/>
<path d="M9863 6370 c-91 -55 -81 -194 17 -245 82 -42 184 17 197 114 6 47
-25 109 -67 134 -38 23 -107 22 -147 -3z"/>
<path d="M2511 6368 c-71 -38 -90 -142 -36 -198 57 -60 133 -61 187 -2 48 51
45 133 -7 182 -29 28 -108 37 -144 18z"/>
<path d="M10453 6360 c-140 -71 -45 -277 100 -217 110 47 88 203 -33 232 -16
3 -41 -2 -67 -15z"/>
<path d="M1948 6344 c-36 -19 -48 -43 -48 -94 0 -61 41 -100 105 -100 100 0
142 105 71 176 -38 38 -81 44 -128 18z"/>
<path d="M11030 6342 c-84 -41 -73 -159 18 -187 35 -10 90 13 107 45 32 61 11
120 -51 146 -41 17 -32 17 -74 -4z"/>
<path d="M1379 6311 c-58 -58 -18 -141 67 -141 32 0 74 42 74 74 0 85 -83 125
-141 67z"/>
<path d="M11599 6317 c-20 -15 -39 -51 -39 -72 0 -26 46 -65 78 -65 37 0 72
37 72 77 0 54 -70 92 -111 60z"/>
<path d="M825 6286 c-33 -50 7 -98 69 -82 56 14 35 106 -24 106 -20 0 -35 -8
-45 -24z"/>
<path d="M12172 6288 c-28 -28 -7 -78 33 -78 27 0 45 18 45 45 0 27 -18 45
-45 45 -12 0 -26 -5 -33 -12z"/>
<path d="M287 6274 c-4 -4 -7 -16 -7 -26 0 -14 6 -19 23 -16 14 2 22 10 22 23
0 20 -25 32 -38 19z"/>
<path d="M12760 6255 c0 -9 5 -15 11 -13 6 2 11 8 11 13 0 5 -5 11 -11 13 -6
2 -11 -4 -11 -13z"/>
<path d="M8443 6131 c-101 -47 -133 -185 -61 -276 56 -71 175 -86 245 -29 55
45 75 88 71 156 -9 128 -136 203 -255 149z"/>
<path d="M3911 6123 c-18 -9 -47 -35 -62 -56 -24 -33 -29 -50 -29 -97 0 -91
57 -158 143 -167 61 -7 109 11 151 57 59 66 60 152 3 217 -55 62 -136 80 -206
46z"/>
<path d="M9055 6130 c-94 -22 -147 -106 -126 -201 32 -142 232 -168 303 -39
26 47 21 134 -10 177 -34 48 -110 77 -167 63z"/>
<path d="M3314 6076 c-43 -42 -44 -45 -44 -106 0 -61 1 -64 44 -106 42 -43 45
-44 106 -44 61 0 64 1 106 44 43 42 44 45 44 106 0 61 -1 64 -44 106 -42 43
-45 44 -106 44 -61 0 -64 -1 -106 -44z"/>
<path d="M9585 6097 c-28 -15 -47 -37 -64 -70 -22 -44 -23 -52 -11 -90 43
-145 230 -155 282 -15 16 43 16 51 3 89 -19 53 -30 66 -76 90 -49 25 -85 24
-134 -4z"/>
<path d="M2818 6103 c-15 -2 -42 -22 -62 -44 -31 -34 -36 -46 -36 -89 0 -43 5
-55 35 -89 56 -62 141 -62 201 0 25 26 29 38 29 89 0 51 -4 63 -29 89 -25 26
-87 55 -106 49 -3 0 -17 -3 -32 -5z"/>
<path d="M10175 6090 c-35 -14 -76 -65 -81 -102 -8 -46 16 -96 59 -125 112
-76 248 59 177 175 -31 50 -102 74 -155 52z"/>
<path d="M2206 6051 c-19 -20 -30 -43 -33 -74 -5 -39 -2 -48 27 -80 29 -34 37
-37 85 -37 46 0 58 4 84 31 26 26 31 38 31 79 0 41 -5 53 -31 79 -26 27 -38
31 -83 31 -45 0 -56 -4 -80 -29z"/>
<path d="M10745 6071 c-34 -15 -57 -49 -62 -94 -14 -118 150 -161 201 -52 23
48 14 86 -30 125 -35 30 -69 37 -109 21z"/>
<path d="M1655 6035 c-32 -31 -34 -91 -4 -129 17 -22 29 -26 68 -26 52 0 83
23 94 69 8 31 -15 86 -41 100 -37 20 -91 13 -117 -14z"/>
<path d="M11292 6027 c-50 -53 -11 -141 63 -141 75 0 115 92 62 142 -33 31
-96 30 -125 -1z"/>
<path d="M1105 6015 c-29 -28 -31 -51 -9 -83 23 -33 54 -42 86 -26 35 18 50
47 42 79 -14 55 -78 71 -119 30z"/>
<path d="M11905 6030 c-52 -20 -59 -79 -13 -113 25 -19 28 -19 52 -4 40 27 50
54 32 82 -21 32 -46 44 -71 35z"/>
<path d="M550 5990 c-16 -30 4 -60 40 -60 23 0 31 5 36 25 4 15 1 32 -6 40
-18 21 -57 19 -70 -5z"/>
<path d="M12460 5985 c-10 -12 -10 -18 0 -30 20 -25 55 -15 55 15 0 30 -35 40
-55 15z"/>
<path d="M4219 5854 c-81 -25 -140 -119 -124 -197 17 -80 97 -147 176 -147 48
0 119 38 145 77 65 97 19 229 -93 267 -54 19 -45 19 -104 0z"/>
<path d="M8734 5841 c-99 -45 -131 -159 -70 -251 34 -51 84 -73 155 -68 100 7
151 65 151 171 0 69 -38 126 -99 151 -53 21 -86 20 -137 -3z"/>
<path d="M3630 5827 c-49 -26 -90 -90 -90 -139 0 -45 24 -92 66 -126 33 -27
46 -32 94 -32 100 0 160 60 160 160 0 48 -5 61 -32 94 -56 68 -124 82 -198 43z"/>
<path d="M9290 5817 c-46 -31 -72 -77 -72 -132 0 -62 27 -105 85 -134 183 -91
317 180 135 275 -42 22 -110 18 -148 -9z"/>
<path d="M3074 5816 c-97 -43 -107 -192 -16 -252 36 -24 120 -24 156 -1 63 41
84 129 48 196 -34 63 -117 88 -188 57z"/>
<path d="M9883 5811 c-49 -23 -73 -55 -80 -108 -15 -115 99 -188 206 -134 43
22 66 66 65 121 -3 101 -100 162 -191 121z"/>
<path d="M2503 5790 c-42 -25 -53 -48 -53 -108 0 -41 5 -55 28 -80 50 -54 131
-55 183 -2 25 24 29 36 29 82 0 60 -16 90 -60 113 -40 21 -89 19 -127 -5z"/>
<path d="M10454 5791 c-75 -34 -92 -133 -31 -188 64 -58 152 -39 188 41 18 43
19 47 3 87 -13 32 -26 46 -58 60 -23 10 -45 19 -51 19 -5 0 -28 -9 -51 -19z"/>
<path d="M1951 5776 c-103 -57 -38 -219 77 -190 40 10 82 61 82 100 0 80 -88
129 -159 90z"/>
<path d="M11005 5755 c-25 -24 -34 -81 -19 -120 8 -19 55 -45 84 -45 91 0 131
123 56 175 -33 24 -93 19 -121 -10z"/>
<path d="M1379 5741 c-17 -18 -29 -40 -29 -56 0 -35 50 -85 85 -85 36 0 85 50
85 87 0 38 -46 83 -84 83 -17 0 -39 -11 -57 -29z"/>
<path d="M11585 5735 c-29 -28 -31 -45 -10 -84 23 -46 66 -54 109 -20 34 27
36 77 3 107 -31 29 -72 28 -102 -3z"/>
<path d="M824 5715 c-9 -14 -13 -32 -9 -45 15 -47 86 -50 107 -5 27 59 -62
105 -98 50z"/>
<path d="M12172 5718 c-28 -28 -7 -78 33 -78 27 0 45 18 45 45 0 27 -18 45
-45 45 -12 0 -26 -5 -33 -12z"/>
<path d="M282 5688 c2 -15 10 -23 23 -23 30 0 27 39 -3 43 -20 3 -23 0 -20
-20z"/>
<path d="M4471 5563 c-41 -21 -88 -83 -97 -130 -21 -110 99 -230 209 -209 47
9 110 56 130 99 40 83 8 191 -68 234 -49 27 -125 30 -174 6z"/>
<path d="M8465 5570 c-44 -13 -105 -80 -115 -126 -26 -113 56 -216 170 -216
174 0 242 237 93 324 -37 22 -108 30 -148 18z"/>
<path d="M3910 5548 c-115 -59 -117 -218 -4 -289 104 -64 245 15 247 138 1
130 -128 210 -243 151z"/>
<path d="M9003 5539 c-127 -81 -80 -279 69 -296 57 -7 109 17 146 65 35 47 38
135 6 179 -54 73 -152 96 -221 52z"/>
<path d="M3339 5527 c-96 -64 -90 -201 11 -254 54 -29 86 -29 140 0 137 72 85
277 -70 277 -32 0 -58 -7 -81 -23z"/>
<path d="M9615 5543 c-35 -9 -77 -45 -91 -79 -43 -103 23 -204 134 -204 72 0
142 71 142 145 0 88 -97 160 -185 138z"/>
<path d="M2805 5526 c-50 -22 -85 -71 -85 -119 0 -146 195 -190 255 -58 31 69
-1 148 -71 177 -41 17 -60 17 -99 0z"/>
<path d="M10161 5513 c-48 -24 -76 -88 -61 -141 12 -46 35 -69 86 -87 133 -45
222 143 105 222 -40 27 -83 29 -130 6z"/>
<path d="M2233 5500 c-33 -19 -63 -66 -63 -95 0 -56 59 -115 115 -115 118 0
157 163 51 214 -44 21 -64 20 -103 -4z"/>
<path d="M10715 5477 c-39 -39 -45 -78 -20 -127 20 -38 43 -50 97 -50 62 0 98
38 98 102 0 65 -29 98 -93 105 -43 5 -49 3 -82 -30z"/>
<path d="M1678 5484 c-34 -18 -48 -43 -48 -84 0 -43 47 -90 90 -90 43 0 90 47
90 90 0 42 -15 67 -50 85 -36 18 -47 18 -82 -1z"/>
<path d="M11314 5478 c-47 -22 -57 -95 -19 -133 40 -41 105 -33 130 16 22 42
18 67 -14 100 -30 30 -60 35 -97 17z"/>
<path d="M1112 5454 c-28 -19 -30 -74 -4 -97 63 -57 152 33 92 93 -24 24 -57
26 -88 4z"/>
<path d="M11873 5434 c-15 -24 -15 -29 -2 -53 28 -50 109 -34 109 23 0 55 -76
76 -107 30z"/>
<path d="M554 5426 c-12 -31 0 -51 34 -54 32 -3 33 -2 30 30 -2 28 -7 34 -31
36 -17 2 -29 -2 -33 -12z"/>
<path d="M12464 5415 c-8 -19 3 -35 26 -35 22 0 33 23 17 39 -15 15 -37 14
-43 -4z"/>
<path d="M4765 5288 c-32 -17 -76 -61 -91 -90 -17 -32 -18 -121 -3 -151 17
-32 60 -77 91 -93 15 -8 48 -14 73 -14 132 0 220 128 170 247 -20 48 -41 71
-87 94 -41 21 -121 25 -153 7z"/>
<path d="M8160 5278 c-25 -13 -55 -38 -67 -57 -61 -92 -31 -209 67 -258 57
-29 92 -29 158 2 45 21 56 32 77 77 14 29 25 64 25 78 0 14 -11 49 -25 78 -21
45 -32 56 -77 77 -66 31 -101 31 -158 3z"/>
<path d="M4205 5277 c-41 -19 -91 -78 -100 -117 -14 -63 2 -113 51 -161 44
-44 46 -44 114 -44 l70 0 47 48 48 47 0 70 c0 69 0 70 -46 115 -40 41 -51 47
-100 51 -34 3 -65 -1 -84 -9z"/>
<path d="M8762 5277 c-159 -32 -162 -274 -4 -314 152 -39 265 118 182 252 -33
54 -102 78 -178 62z"/>
<path d="M3644 5261 c-140 -64 -122 -254 27 -292 42 -11 51 -10 95 12 87 43
117 133 71 213 -40 72 -122 100 -193 67z"/>
<path d="M9302 5254 c-70 -36 -101 -127 -67 -198 48 -100 192 -114 258 -25 45
62 28 166 -36 211 -39 28 -112 34 -155 12z"/>
<path d="M3069 5241 c-93 -51 -92 -194 2 -241 80 -41 158 -11 193 74 19 45 19
47 0 92 -10 26 -31 56 -45 67 -39 28 -106 32 -150 8z"/>
<path d="M9868 5234 c-78 -42 -77 -188 2 -229 16 -8 50 -15 76 -15 41 0 51 5
86 40 39 39 40 42 36 97 -4 49 -9 60 -41 90 -31 28 -44 33 -84 33 -27 -1 -60
-7 -75 -16z"/>
<path d="M2513 5225 c-81 -35 -83 -169 -3 -210 60 -31 137 -10 165 45 32 62 9
141 -50 166 -42 17 -71 17 -112 -1z"/>
<path d="M10430 5201 c-16 -16 -32 -40 -36 -55 -9 -38 3 -74 36 -107 23 -24
37 -29 75 -29 38 0 52 5 75 29 33 33 45 69 36 107 -4 15 -20 39 -36 55 -23 24
-37 29 -75 29 -38 0 -52 -5 -75 -29z"/>
<path d="M1939 5192 c-28 -25 -34 -37 -34 -72 0 -35 6 -47 34 -72 29 -26 40
-29 73 -25 47 6 67 21 85 65 11 27 11 37 0 65 -18 43 -38 58 -85 64 -33 4 -44
1 -73 -25z"/>
<path d="M11024 5198 c-39 -19 -55 -79 -32 -121 17 -33 39 -46 76 -47 46 0 71
16 88 56 12 29 12 39 0 68 -22 53 -77 71 -132 44z"/>
<path d="M1398 5185 c-51 -28 -50 -103 2 -130 38 -20 52 -19 84 6 20 16 26 29
26 58 0 62 -58 95 -112 66z"/>
<path d="M11592 5167 c-28 -30 -28 -68 1 -95 46 -44 107 -16 107 48 0 65 -65
93 -108 47z"/>
<path d="M832 5158 c-15 -15 -15 -61 0 -76 7 -7 24 -12 38 -12 33 0 50 17 50
50 0 33 -17 50 -50 50 -14 0 -31 -5 -38 -12z"/>
<path d="M12183 5153 c-16 -6 -17 -59 -2 -68 5 -4 21 -4 35 -1 18 5 24 13 24
35 0 34 -23 48 -57 34z"/>
<path d="M290 5121 c0 -12 6 -21 16 -21 9 0 14 7 12 17 -5 25 -28 28 -28 4z"/>
<path d="M5050 5004 c-45 -20 -68 -41 -91 -86 -21 -41 -25 -118 -8 -151 17
-32 60 -77 91 -93 39 -21 122 -18 168 6 102 52 120 213 33 292 -50 46 -131 59
-193 32z"/>
<path d="M7895 5005 c-52 -18 -101 -72 -115 -126 -25 -93 42 -201 134 -214
127 -19 216 51 216 172 0 122 -122 210 -235 168z"/>
<path d="M4484 4992 c-130 -61 -135 -247 -9 -307 51 -23 140 -17 182 13 60 43
82 145 46 219 -35 75 -141 111 -219 75z"/>
<path d="M8463 4993 c-135 -47 -147 -240 -19 -302 144 -70 293 67 228 210 -23
53 -48 76 -99 95 -47 16 -57 16 -110 -3z"/>
<path d="M3920 4978 c-59 -30 -90 -77 -90 -137 0 -92 53 -151 143 -159 86 -7
146 35 168 119 35 129 -102 238 -221 177z"/>
<path d="M9025 4976 c-16 -7 -41 -26 -55 -41 -22 -23 -25 -36 -25 -101 0 -70
2 -75 32 -106 29 -29 40 -33 102 -36 69 -4 70 -4 112 35 38 36 43 45 46 94 5
62 -15 110 -59 142 -34 25 -113 32 -153 13z"/>
<path d="M3351 4963 c-66 -33 -91 -123 -55 -199 17 -35 81 -74 122 -74 42 0
101 32 122 65 26 42 27 119 1 161 -36 59 -122 80 -190 47z"/>
<path d="M9605 4965 c-69 -25 -103 -91 -83 -162 41 -151 266 -128 270 28 3 99
-93 168 -187 134z"/>
<path d="M2788 4944 c-54 -29 -75 -117 -42 -174 19 -31 72 -60 110 -60 60 0
124 63 124 123 0 40 -34 101 -65 115 -35 16 -94 14 -127 -4z"/>
<path d="M10175 4946 c-45 -20 -67 -50 -72 -98 -8 -85 69 -153 147 -129 54 16
82 51 88 110 4 45 1 52 -29 85 -39 42 -87 54 -134 32z"/>
<path d="M2227 4929 c-24 -14 -47 -62 -47 -100 0 -22 10 -41 34 -65 71 -71
176 -29 176 71 0 38 -5 52 -29 76 -24 23 -38 29 -73 29 -24 0 -51 -5 -61 -11z"/>
<path d="M10746 4928 c-37 -14 -68 -80 -55 -117 14 -37 30 -52 67 -68 43 -18
94 2 117 47 43 84 -39 172 -129 138z"/>
<path d="M1660 4900 c-31 -31 -28 -102 6 -129 69 -54 165 14 134 95 -6 15 -18
33 -28 40 -27 21 -89 17 -112 -6z"/>
<path d="M11297 4892 c-10 -10 -17 -35 -17 -55 0 -48 28 -77 75 -77 65 0 99
72 59 128 -20 29 -93 31 -117 4z"/>
<path d="M1111 4876 c-29 -30 -25 -63 11 -89 23 -17 31 -19 53 -9 14 6 31 23
37 37 10 22 8 30 -9 53 -27 36 -62 40 -92 8z"/>
<path d="M11886 4874 c-24 -23 -20 -61 8 -79 39 -26 76 -3 76 47 0 43 -53 63
-84 32z"/>
<path d="M561 4857 c-25 -31 20 -71 48 -42 12 12 13 19 5 33 -15 22 -38 26
-53 9z"/>
<path d="M12470 4835 c0 -10 7 -15 18 -13 21 4 19 22 -2 26 -10 2 -16 -3 -16
-13z"/>
<path d="M5325 4716 c-65 -28 -114 -121 -101 -191 19 -101 132 -174 227 -146
113 34 164 163 106 266 -42 74 -150 107 -232 71z"/>
<path d="M7595 4711 c-48 -22 -69 -44 -90 -94 -21 -51 -19 -83 10 -145 21 -45
32 -56 77 -77 29 -14 64 -25 78 -25 14 0 49 11 78 25 45 21 56 32 77 77 29 62
31 94 10 145 -41 98 -144 138 -240 94z"/>
<path d="M4749 4698 c-55 -31 -82 -87 -77 -157 5 -71 32 -111 94 -141 83 -41
182 -6 227 81 38 72 -1 187 -76 222 -49 24 -124 21 -168 -5z"/>
<path d="M8155 4697 c-72 -41 -104 -133 -71 -210 17 -42 66 -83 114 -98 114
-34 237 88 203 201 -33 111 -149 162 -246 107z"/>
<path d="M4179 4686 c-101 -69 -86 -227 27 -281 101 -48 224 32 224 145 0 96
-65 160 -160 160 -42 0 -64 -6 -91 -24z"/>
<path d="M8745 4696 c-41 -18 -74 -56 -90 -102 -26 -76 27 -170 109 -193 99
-27 205 65 193 167 -11 102 -123 170 -212 128z"/>
<path d="M3644 4686 c-63 -28 -101 -107 -82 -173 30 -111 171 -144 247 -58 36
42 46 73 37 123 -15 94 -113 146 -202 108z"/>
<path d="M3080 4668 c-36 -19 -49 -32 -64 -71 l-20 -47 22 -45 c24 -50 72 -85
114 -85 70 0 138 67 138 137 0 41 -34 89 -79 113 -50 25 -57 25 -111 -2z"/>
<path d="M9292 4670 c-56 -34 -78 -120 -47 -180 46 -89 159 -104 230 -30 41
42 47 121 13 170 -13 19 -35 40 -48 47 -38 19 -110 16 -148 -7z"/>
<path d="M9883 4665 c-60 -26 -85 -92 -59 -158 27 -70 106 -98 176 -62 82 42
80 179 -4 219 -41 19 -70 20 -113 1z"/>
<path d="M2513 4650 c-40 -24 -53 -48 -53 -100 0 -34 6 -48 34 -76 28 -28 42
-34 76 -34 34 0 48 6 76 34 28 28 34 41 34 78 0 50 -18 82 -60 103 -39 20 -69
19 -107 -5z"/>
<path d="M10448 4644 c-36 -19 -48 -43 -48 -94 0 -61 41 -100 105 -100 100 0
142 105 71 176 -38 38 -81 44 -128 18z"/>
<path d="M1961 4636 c-56 -32 -67 -102 -22 -147 47 -46 125 -31 150 29 32 76
-58 159 -128 118z"/>
<path d="M11016 4619 c-21 -16 -26 -29 -26 -63 0 -52 31 -86 77 -86 45 0 62 9
78 41 22 42 18 67 -14 100 -35 35 -77 38 -115 8z"/>
<path d="M1387 4602 c-19 -21 -22 -64 -7 -93 8 -14 21 -19 53 -19 54 0 67 13
67 67 0 32 -5 45 -19 53 -30 16 -76 12 -94 -8z"/>
<path d="M11595 4595 c-30 -29 -31 -45 -4 -79 25 -31 61 -34 89 -6 28 28 25
64 -6 89 -34 27 -50 26 -79 -4z"/>
<path d="M848 4589 c-26 -14 -24 -66 2 -74 11 -3 29 -3 40 0 27 9 27 60 1 75
-23 12 -22 12 -43 -1z"/>
<path d="M12185 4576 c-20 -15 -15 -43 10 -52 18 -7 45 12 45 32 0 22 -35 35
-55 20z"/>
<path d="M5631 4439 c-71 -28 -121 -97 -121 -169 0 -85 72 -165 159 -177 31
-4 53 1 95 21 46 22 59 35 80 78 32 65 33 91 0 155 -20 42 -35 57 -77 77 -53
27 -95 32 -136 15z"/>
<path d="M6174 4431 c-50 -23 -77 -56 -94 -116 -11 -40 -11 -54 3 -99 19 -59
45 -88 99 -111 124 -51 248 31 248 165 0 137 -129 218 -256 161z"/>
<path d="M6739 4427 c-129 -68 -131 -241 -4 -315 58 -33 140 -27 191 14 56 45
76 88 72 156 -9 131 -143 206 -259 145z"/>
<path d="M7342 4440 c-46 -11 -110 -75 -123 -123 -17 -62 -2 -114 45 -164 110
-117 298 -43 298 117 0 115 -106 197 -220 170z"/>
<path d="M5035 4418 c-104 -61 -114 -212 -18 -285 45 -35 125 -43 177 -18 114
54 129 216 29 292 -50 38 -133 43 -188 11z"/>
<path d="M7897 4426 c-72 -27 -109 -79 -109 -156 0 -76 33 -125 107 -155 77
-33 172 4 205 78 26 56 25 103 -2 157 -37 72 -123 105 -201 76z"/>
<path d="M4482 4413 c-111 -54 -121 -200 -19 -274 71 -51 173 -33 223 40 34
50 34 132 0 182 -44 65 -133 87 -204 52z"/>
<path d="M8453 4410 c-80 -41 -111 -127 -73 -204 69 -144 271 -111 297 48 7
47 -28 119 -73 147 -51 31 -101 34 -151 9z"/>
<path d="M3933 4409 c-63 -18 -103 -97 -89 -174 21 -109 162 -151 244 -72 61
59 63 153 5 209 -48 45 -94 56 -160 37z"/>
<path d="M9014 4394 c-42 -21 -64 -62 -64 -124 0 -91 48 -140 137 -140 85 0
143 57 143 141 0 45 -29 98 -64 120 -38 23 -109 24 -152 3z"/>
<path d="M3329 4361 c-34 -34 -39 -44 -39 -86 0 -83 50 -135 130 -135 52 0 96
22 115 60 8 16 15 48 15 70 0 80 -52 130 -135 130 -42 0 -52 -5 -86 -39z"/>
<path d="M9610 4393 c-28 -10 -70 -56 -81 -90 -14 -43 1 -90 42 -129 26 -25
38 -29 84 -29 61 0 97 25 122 83 39 93 -69 201 -167 165z"/>
<path d="M2811 4377 c-46 -16 -72 -54 -73 -106 -1 -82 69 -133 151 -111 105
28 108 190 4 219 -45 13 -39 13 -82 -2z"/>
<path d="M10148 4351 c-29 -26 -33 -35 -33 -81 0 -46 4 -55 33 -81 47 -43 102
-41 148 5 28 28 34 42 34 76 0 34 -6 48 -34 76 -46 46 -101 48 -148 5z"/>
<path d="M2211 4334 c-29 -37 -28 -95 3 -131 20 -23 32 -28 69 -28 65 0 97 32
97 95 0 64 -28 90 -97 90 -44 0 -55 -4 -72 -26z"/>
<path d="M10725 4336 c-35 -35 -41 -69 -18 -108 26 -45 68 -60 114 -41 53 21
72 73 48 126 -23 50 -104 63 -144 23z"/>
<path d="M1669 4321 c-16 -16 -29 -39 -29 -51 0 -28 52 -80 80 -80 28 0 80 52
80 80 0 28 -52 80 -80 80 -12 0 -35 -13 -51 -29z"/>
<path d="M11312 4324 c-16 -11 -22 -25 -22 -54 0 -29 6 -43 22 -54 71 -50 148
43 85 102 -27 26 -54 28 -85 6z"/>
<path d="M1133 4320 c-40 -16 -42 -79 -2 -101 23 -12 65 9 76 38 13 33 -38 77
-74 63z"/>
<path d="M11884 4296 c-3 -8 -4 -25 -2 -38 2 -19 9 -23 38 -23 33 0 35 2 35
35 0 32 -3 35 -33 38 -21 2 -34 -2 -38 -12z"/>
<path d="M565 4280 c-4 -7 -3 -16 3 -22 14 -14 45 -2 40 15 -6 16 -34 21 -43
7z"/>
<path d="M5368 4150 c-68 -21 -109 -62 -129 -132 -20 -70 38 -167 111 -189
137 -41 259 86 209 218 -28 74 -121 125 -191 103z"/>
<path d="M5919 4150 c-77 -23 -125 -97 -117 -181 9 -90 75 -149 166 -149 72 0
125 30 152 85 68 140 -54 290 -201 245z"/>
<path d="M6455 4137 c-59 -33 -85 -78 -85 -146 0 -108 63 -171 171 -171 68 0
113 26 146 85 84 148 -84 316 -232 232z"/>
<path d="M7034 4141 c-99 -45 -131 -159 -70 -251 34 -51 84 -73 155 -68 99 7
151 65 151 170 0 67 -31 117 -93 147 -53 26 -89 26 -143 2z"/>
<path d="M4770 4128 c-59 -31 -82 -66 -87 -130 -7 -98 45 -159 144 -166 48 -3
64 0 93 20 38 25 80 97 80 138 0 50 -42 113 -90 137 -57 28 -85 28 -140 1z"/>
<path d="M7586 4127 c-99 -56 -105 -212 -10 -276 27 -19 48 -24 93 -24 103 0
163 60 163 165 0 124 -135 199 -246 135z"/>
<path d="M8196 4135 c-21 -7 -51 -26 -67 -41 -107 -103 -11 -287 136 -260 48
9 112 68 125 114 31 113 -85 225 -194 187z"/>
<path d="M4226 4130 c-68 -21 -113 -97 -101 -171 14 -80 78 -125 166 -117 158
16 173 244 18 288 -39 11 -44 11 -83 0z"/>
<path d="M8726 4111 c-87 -58 -88 -190 -2 -246 124 -82 283 67 206 193 -42 68
-141 94 -204 53z"/>
<path d="M3645 4110 c-67 -27 -97 -132 -55 -198 44 -71 146 -81 207 -19 86 85
28 228 -92 226 -22 0 -49 -4 -60 -9z"/>
<path d="M9308 4099 c-66 -34 -85 -106 -48 -178 18 -37 74 -71 116 -71 30 0
94 41 109 70 34 67 10 147 -55 180 -49 25 -74 25 -122 -1z"/>
<path d="M3081 4093 c-47 -23 -77 -90 -61 -137 13 -40 45 -72 88 -87 28 -9 39
-8 80 12 36 19 50 33 61 63 38 102 -71 199 -168 149z"/>
<path d="M9874 4081 c-37 -22 -59 -77 -49 -120 9 -41 56 -82 101 -87 102 -13
165 110 96 187 -36 41 -102 50 -148 20z"/>
<path d="M2505 4059 c-47 -41 -49 -93 -6 -141 24 -27 36 -33 71 -33 35 0 47 6
71 33 43 48 41 100 -6 141 -23 20 -46 31 -65 31 -19 0 -42 -11 -65 -31z"/>
<path d="M10439 4051 c-21 -22 -29 -39 -29 -66 0 -51 44 -95 95 -95 51 0 95
44 95 95 0 51 -44 95 -95 95 -27 0 -44 -8 -66 -29z"/>
<path d="M1947 4042 c-16 -17 -27 -39 -27 -56 0 -36 49 -86 85 -86 35 0 85 50
85 85 0 16 -12 38 -29 56 -39 38 -78 38 -114 1z"/>
<path d="M11020 4040 c-30 -30 -27 -83 6 -109 38 -30 68 -26 99 11 20 23 25
38 20 57 -13 57 -85 81 -125 41z"/>
<path d="M1400 4032 c-26 -21 -30 -66 -7 -89 23 -23 68 -19 89 7 24 30 23 46
-7 75 -29 30 -45 31 -75 7z"/>
<path d="M11608 4028 c-32 -25 -27 -75 8 -89 54 -20 99 45 58 85 -19 19 -44
20 -66 4z"/>
<path d="M847 4014 c-12 -12 -8 -41 8 -54 20 -17 47 5 43 34 -3 21 -37 34 -51
20z"/>
<path d="M12190 3985 c0 -8 7 -15 15 -15 8 0 15 7 15 15 0 8 -7 15 -15 15 -8
0 -15 -7 -15 -15z"/>
<path d="M6184 3851 c-75 -34 -111 -113 -88 -191 51 -176 300 -155 320 26 14
127 -116 220 -232 165z"/>
<path d="M6772 3860 c-124 -30 -154 -217 -48 -293 45 -32 148 -31 194 1 43 31
64 75 64 132 0 116 -95 188 -210 160z"/>
<path d="M5055 3846 c-62 -28 -103 -105 -90 -172 15 -84 116 -147 195 -123 50
15 106 75 115 123 23 122 -106 223 -220 172z"/>
<path d="M5602 3841 c-54 -35 -74 -76 -69 -150 3 -60 6 -66 44 -102 70 -65
159 -65 224 0 65 65 65 154 0 224 -36 38 -42 41 -102 44 -51 3 -70 0 -97 -16z"/>
<path d="M7302 3840 c-97 -59 -97 -201 -1 -273 64 -47 170 -25 221 45 31 45
33 134 2 175 -54 72 -151 96 -222 53z"/>
<path d="M4479 3827 c-43 -28 -83 -106 -75 -145 18 -80 100 -141 172 -128 65
13 124 83 124 148 0 114 -129 187 -221 125z"/>
<path d="M7857 3821 c-44 -39 -61 -88 -52 -147 17 -116 158 -163 250 -83 66
58 70 152 10 217 -31 34 -37 36 -102 40 -67 4 -72 3 -106 -27z"/>
<path d="M8475 3840 c-62 -19 -95 -69 -95 -143 0 -103 103 -165 205 -123 93
39 103 198 16 249 -35 21 -89 28 -126 17z"/>
<path d="M3935 3830 c-40 -16 -77 -67 -82 -113 -10 -86 47 -147 137 -147 47 0
56 4 91 39 35 35 39 44 39 91 0 36 -6 61 -20 80 -35 49 -112 73 -165 50z"/>
<path d="M9061 3832 c-62 -11 -101 -63 -101 -135 0 -98 102 -156 189 -109 132
71 59 271 -88 244z"/>
<path d="M3373 3815 c-42 -18 -73 -69 -73 -119 0 -31 7 -45 39 -77 33 -33 45
-39 81 -39 36 0 48 6 81 39 34 33 39 45 39 83 0 54 -27 94 -76 114 -41 17 -50
17 -91 -1z"/>
<path d="M9599 3805 c-38 -21 -59 -58 -59 -106 0 -33 6 -47 34 -75 29 -29 41
-34 81 -34 40 0 52 5 81 34 26 26 34 42 34 70 0 96 -91 155 -171 111z"/>
<path d="M2798 3794 c-35 -19 -48 -43 -48 -93 0 -28 8 -48 26 -70 22 -27 32
-31 76 -31 41 0 54 5 79 29 43 43 41 101 -5 147 -38 38 -81 44 -128 18z"/>
<path d="M10180 3792 c-84 -41 -73 -159 18 -187 35 -10 90 13 107 45 32 61 11
120 -51 146 -41 17 -32 17 -74 -4z"/>
<path d="M2245 3778 c-31 -18 -44 -40 -45 -76 0 -73 98 -112 148 -59 66 71
-19 183 -103 135z"/>
<path d="M10732 3757 c-29 -31 -29 -87 -2 -112 53 -48 149 1 136 68 -9 46 -34
67 -76 67 -25 0 -43 -7 -58 -23z"/>
<path d="M1670 3743 c-36 -46 -8 -103 50 -103 34 0 57 18 65 50 9 36 -27 80
-65 80 -19 0 -36 -9 -50 -27z"/>
<path d="M11318 3749 c-21 -12 -24 -69 -6 -87 7 -7 26 -12 43 -12 38 0 55 16
55 51 0 49 -48 74 -92 48z"/>
<path d="M1127 3734 c-4 -4 -7 -20 -7 -36 0 -27 3 -29 33 -26 28 3 32 6 32 33
0 25 -5 31 -25 33 -14 2 -29 0 -33 -4z"/>
<path d="M11894 3715 c-4 -9 0 -23 8 -31 20 -20 50 -7 46 20 -4 26 -45 35 -54
11z"/>
<path d="M5926 3570 c-42 -13 -95 -68 -107 -112 -28 -104 74 -212 180 -192 47
9 108 67 121 115 21 77 -31 166 -111 189 -39 11 -44 11 -83 0z"/>
<path d="M6485 3569 c-88 -25 -129 -133 -85 -224 70 -144 294 -87 294 75 0
109 -100 181 -209 149z"/>
<path d="M7073 3569 c-74 -15 -123 -74 -123 -149 0 -140 170 -206 267 -104 43
46 52 105 25 167 -30 68 -97 102 -169 86z"/>
<path d="M5328 3549 c-43 -22 -78 -81 -78 -131 0 -47 39 -110 80 -130 70 -36
167 -11 203 50 24 41 22 122 -3 165 -38 64 -130 85 -202 46z"/>
<path d="M7602 3553 c-52 -25 -77 -69 -77 -133 0 -66 26 -109 81 -135 76 -36
179 5 204 81 44 131 -86 248 -208 187z"/>
<path d="M4757 3542 c-31 -19 -67 -85 -67 -122 0 -38 37 -104 69 -123 37 -22
123 -23 156 -1 85 56 85 192 0 248 -33 22 -122 21 -158 -2z"/>
<path d="M8173 3546 c-96 -44 -97 -202 -2 -252 23 -11 47 -15 83 -11 41 4 55
10 83 40 56 62 56 132 -1 194 -27 30 -40 36 -82 39 -30 3 -62 -1 -81 -10z"/>
<path d="M4179 3511 c-34 -34 -39 -44 -39 -86 0 -83 50 -135 130 -135 52 0 96
22 115 60 8 16 15 48 15 70 0 80 -52 130 -135 130 -42 0 -52 -5 -86 -39z"/>
<path d="M8738 3534 c-30 -16 -68 -80 -68 -114 0 -35 39 -99 70 -115 67 -34
147 -10 180 55 25 49 25 71 0 119 -32 63 -119 90 -182 55z"/>
<path d="M3636 3519 c-34 -27 -56 -70 -56 -110 0 -23 10 -41 39 -70 34 -34 44
-39 86 -39 40 0 52 5 80 33 59 59 58 118 -1 174 -44 41 -105 46 -148 12z"/>
<path d="M9323 3525 c-59 -25 -82 -95 -54 -163 10 -23 25 -36 57 -48 41 -16
47 -16 88 0 38 15 47 24 62 62 16 41 16 47 0 88 -14 36 -25 47 -57 60 -47 19
-55 19 -96 1z"/>
<path d="M3103 3523 c-12 -2 -34 -18 -48 -34 -36 -43 -34 -98 4 -141 25 -28
36 -33 75 -33 38 0 51 5 77 32 78 78 4 200 -108 176z"/>
<path d="M9868 3491 c-27 -24 -33 -36 -33 -71 0 -117 179 -139 201 -24 19 102
-91 164 -168 95z"/>
<path d="M2509 3481 c-20 -20 -29 -39 -29 -61 0 -43 47 -90 90 -90 22 0 41 9
61 29 20 20 29 39 29 61 0 22 -9 41 -29 61 -20 20 -39 29 -61 29 -22 0 -41 -9
-61 -29z"/>
<path d="M10445 3475 c-44 -43 -27 -109 34 -134 52 -22 111 23 111 84 0 67
-96 100 -145 50z"/>
<path d="M1962 3474 c-31 -21 -31 -87 0 -108 51 -36 108 -7 108 54 0 42 -26
70 -65 70 -11 0 -31 -7 -43 -16z"/>
<path d="M11055 3480 c-52 -20 -59 -79 -13 -113 25 -19 28 -19 52 -4 40 27 50
54 32 82 -21 32 -46 44 -71 35z"/>
<path d="M1405 3454 c-24 -25 -15 -67 17 -78 34 -12 58 6 58 45 0 43 -45 63
-75 33z"/>
<path d="M11618 3449 c-22 -12 -23 -42 -2 -60 31 -26 70 25 44 56 -14 17 -19
18 -42 4z"/>
<path d="M860 3420 c0 -5 5 -10 10 -10 6 0 10 5 10 10 0 6 -4 10 -10 10 -5 0
-10 -4 -10 -10z"/>
<path d="M5647 3275 c-76 -26 -117 -94 -103 -168 18 -97 136 -149 216 -94 52
35 73 70 73 120 0 103 -94 175 -186 142z"/>
<path d="M6212 3282 c-43 -13 -91 -61 -102 -102 -16 -59 1 -110 51 -155 40
-36 44 -37 100 -33 50 4 64 9 93 37 62 60 64 146 5 207 -43 44 -95 60 -147 46z"/>
<path d="M6760 3268 c-49 -25 -90 -83 -90 -128 0 -43 42 -112 80 -132 104 -54
228 26 217 141 -3 24 -13 55 -24 70 -20 27 -96 71 -123 71 -9 0 -36 -10 -60
-22z"/>
<path d="M5065 3266 c-52 -23 -78 -60 -82 -118 -5 -69 20 -112 83 -140 41 -18
51 -19 90 -8 130 37 141 213 17 266 -40 17 -69 17 -108 0z"/>
<path d="M7324 3266 c-90 -39 -103 -195 -21 -249 61 -39 141 -30 192 23 37 39
46 118 17 169 -34 63 -117 88 -188 57z"/>
<path d="M7905 3265 c-144 -51 -104 -265 50 -265 166 0 183 243 20 274 -16 3
-48 -1 -70 -9z"/>
<path d="M4493 3255 c-98 -42 -95 -193 5 -237 57 -26 105 -17 148 26 43 43 52
91 26 148 -30 69 -105 96 -179 63z"/>
<path d="M8480 3259 c-62 -25 -101 -94 -86 -153 18 -71 105 -119 168 -93 58
25 83 61 83 122 0 60 -25 97 -82 121 -37 16 -49 16 -83 3z"/>
<path d="M3926 3240 c-33 -21 -65 -73 -66 -105 0 -48 76 -125 123 -125 34 0
89 33 108 64 24 40 24 83 -1 123 -36 60 -110 80 -164 43z"/>
<path d="M3394 3243 c-12 -2 -34 -18 -50 -34 -23 -24 -29 -39 -29 -75 0 -39 5
-50 33 -75 24 -22 42 -29 72 -29 30 0 48 7 72 29 28 25 33 36 33 75 0 38 -5
51 -30 75 -31 29 -64 41 -101 34z"/>
<path d="M9022 3234 c-96 -67 -46 -214 73 -214 29 0 45 8 71 34 29 29 34 41
34 81 0 40 -5 52 -34 81 -28 28 -41 34 -78 34 -24 0 -54 -7 -66 -16z"/>
<path d="M9615 3231 c-88 -38 -77 -176 15 -196 68 -15 138 52 126 120 -11 59
-86 100 -141 76z"/>
<path d="M2789 3201 c-45 -46 -32 -123 26 -149 42 -19 65 -14 101 22 36 36 41
59 22 101 -26 58 -103 71 -149 26z"/>
<path d="M10162 3197 c-33 -35 -30 -99 4 -126 38 -30 80 -27 115 8 32 33 36
58 14 100 -24 48 -96 58 -133 18z"/>
<path d="M2235 3185 c-14 -13 -25 -36 -25 -50 0 -33 41 -75 73 -75 39 0 77 36
77 74 0 68 -78 99 -125 51z"/>
<path d="M10740 3180 c-58 -58 20 -142 88 -94 28 19 30 74 4 97 -25 23 -68 21
-92 -3z"/>
<path d="M1686 3174 c-24 -24 -20 -61 9 -80 23 -15 27 -15 50 0 46 30 26 96
-29 96 -8 0 -22 -7 -30 -16z"/>
<path d="M11320 3161 c-5 -11 -10 -24 -10 -30 0 -14 29 -41 45 -41 18 0 45 27
45 45 0 20 -28 45 -50 45 -11 0 -24 -9 -30 -19z"/>
<path d="M1133 3144 c-3 -8 -1 -20 6 -27 14 -14 47 15 37 32 -10 16 -36 13
-43 -5z"/>
<path d="M5355 2976 c-101 -46 -114 -180 -22 -236 67 -41 158 -16 190 53 22
46 21 85 -3 124 -36 60 -108 86 -165 59z"/>
<path d="M5898 2970 c-26 -14 -41 -32 -53 -64 -32 -84 6 -160 92 -186 35 -11
46 -10 86 8 80 35 107 113 67 191 -35 69 -117 90 -192 51z"/>
<path d="M6463 2970 c-42 -25 -63 -68 -63 -126 0 -40 5 -51 38 -85 64 -63 136
-65 197 -4 61 61 59 133 -4 197 -34 34 -44 38 -87 38 -31 0 -61 -7 -81 -20z"/>
<path d="M7033 2970 c-86 -52 -87 -192 0 -236 42 -23 106 -22 144 1 36 21 66
80 65 125 -3 99 -123 163 -209 110z"/>
<path d="M7611 2973 c-96 -47 -96 -189 -1 -238 87 -45 190 17 190 114 0 58
-29 107 -75 127 -44 18 -72 17 -114 -3z"/>
<path d="M4784 2970 c-39 -15 -74 -68 -74 -111 0 -79 51 -132 126 -132 74 0
127 53 127 127 0 92 -91 152 -179 116z"/>
<path d="M8183 2965 c-61 -26 -87 -100 -59 -164 55 -121 236 -81 236 53 0 52
-19 85 -62 107 -44 22 -71 23 -115 4z"/>
<path d="M4209 2955 c-14 -7 -34 -32 -44 -55 -17 -38 -17 -45 -4 -82 38 -109
177 -111 218 -4 39 102 -72 194 -170 141z"/>
<path d="M8753 2956 c-67 -30 -82 -131 -29 -185 22 -22 36 -26 81 -26 46 0 59
4 82 28 23 23 28 36 28 77 0 42 -5 54 -30 80 -37 36 -87 46 -132 26z"/>
<path d="M3648 2944 c-36 -19 -48 -43 -48 -94 0 -61 41 -100 105 -100 100 0
142 105 71 176 -38 38 -81 44 -128 18z"/>
<path d="M9334 2951 c-34 -15 -64 -60 -64 -98 0 -27 8 -43 35 -70 32 -32 39
-35 78 -30 55 8 87 43 87 97 0 70 -76 126 -136 101z"/>
<path d="M3105 2941 c-73 -30 -82 -132 -14 -166 43 -23 77 -18 110 14 45 46
32 123 -26 149 -30 14 -42 14 -70 3z"/>
<path d="M9879 2911 c-57 -58 -23 -141 59 -141 51 0 82 32 82 84 0 80 -84 114
-141 57z"/>
<path d="M2532 2914 c-73 -51 -24 -152 63 -130 29 7 59 59 50 86 -8 24 -52 60
-74 60 -9 0 -27 -7 -39 -16z"/>
<path d="M10460 2900 c-25 -25 -26 -72 -2 -93 25 -22 75 -21 95 1 37 41 6 112
-48 112 -14 0 -34 -9 -45 -20z"/>
<path d="M1972 2894 c-27 -18 -29 -55 -4 -77 24 -22 55 -21 75 1 22 25 21 48
-3 72 -24 24 -38 25 -68 4z"/>
<path d="M11035 2880 c-26 -29 -7 -70 34 -70 39 0 57 23 45 58 -12 35 -53 41
-79 12z"/>
<path d="M1414 2866 c-8 -21 3 -36 27 -36 15 0 20 6 17 22 -4 27 -35 37 -44
14z"/>
<path d="M11620 2855 c0 -10 7 -15 18 -13 21 4 19 22 -2 26 -10 2 -16 -3 -16
-13z"/>
<path d="M5635 2686 c-53 -24 -70 -52 -70 -116 0 -66 17 -93 74 -117 49 -21
101 -9 142 33 28 29 33 41 33 84 0 45 -4 55 -35 85 -40 40 -97 53 -144 31z"/>
<path d="M6193 2684 c-20 -10 -40 -32 -53 -58 -24 -51 -25 -60 -1 -112 49
-108 207 -91 243 27 9 31 8 43 -8 75 -36 74 -112 102 -181 68z"/>
<path d="M6775 2690 c-34 -14 -76 -65 -81 -101 -7 -44 16 -102 50 -124 88 -58
206 2 206 105 0 87 -96 153 -175 120z"/>
<path d="M7330 2678 c-117 -59 -76 -231 56 -231 73 0 127 52 127 123 0 97 -95
152 -183 108z"/>
<path d="M5063 2680 c-69 -29 -83 -149 -24 -202 26 -23 41 -28 82 -28 45 0 55
4 85 34 30 30 34 40 34 85 0 41 -5 56 -28 82 -23 26 -37 32 -78 35 -27 2 -59
0 -71 -6z"/>
<path d="M7910 2683 c-29 -11 -59 -46 -70 -79 -15 -45 1 -95 43 -130 27 -22
38 -25 79 -22 110 11 153 133 73 208 -24 22 -94 36 -125 23z"/>
<path d="M4474 2646 c-28 -28 -34 -42 -34 -76 0 -34 6 -48 34 -76 29 -29 41
-34 80 -34 36 0 52 6 78 29 29 26 33 35 33 81 0 46 -4 55 -33 81 -26 23 -42
29 -78 29 -39 0 -51 -5 -80 -34z"/>
<path d="M8449 2652 c-24 -21 -32 -38 -36 -75 -5 -43 -3 -49 30 -82 29 -29 42
-35 77 -35 34 0 48 6 76 34 28 28 34 42 34 76 0 34 -6 48 -34 76 -45 45 -101
47 -147 6z"/>
<path d="M3911 2635 c-20 -23 -31 -46 -31 -65 0 -19 11 -42 31 -65 27 -30 37
-35 76 -35 94 0 138 101 74 169 -24 26 -37 31 -74 31 -39 0 -49 -5 -76 -35z"/>
<path d="M9040 2657 c-38 -18 -63 -77 -50 -113 17 -43 39 -63 77 -70 48 -9 93
12 110 54 19 45 9 85 -29 117 -32 27 -69 32 -108 12z"/>
<path d="M3374 2648 c-67 -32 -52 -150 20 -164 35 -6 72 1 93 18 17 13 26 63
18 98 -11 49 -78 74 -131 48z"/>
<path d="M2818 2634 c-51 -27 -50 -102 2 -129 39 -20 43 -19 79 11 37 31 40
63 9 98 -30 32 -57 38 -90 20z"/>
<path d="M9592 2627 c-34 -36 -30 -89 10 -122 25 -21 38 -25 62 -21 70 14 98
85 55 140 -28 35 -95 37 -127 3z"/>
<path d="M10175 2615 c-14 -13 -25 -33 -25 -45 0 -28 43 -70 73 -70 31 0 67
39 67 72 0 30 -41 68 -72 68 -10 0 -30 -11 -43 -25z"/>
<path d="M2251 2606 c-29 -31 -22 -71 14 -88 58 -26 105 60 53 96 -30 22 -41
20 -67 -8z"/>
<path d="M10755 2600 c-24 -27 -13 -68 22 -76 20 -5 31 -2 45 16 23 28 23 35
-2 60 -25 25 -42 25 -65 0z"/>
<path d="M1694 2586 c-10 -26 4 -48 28 -44 17 2 23 10 23 28 0 18 -6 26 -23
28 -13 2 -25 -3 -28 -12z"/>
<path d="M11335 2580 c-4 -7 -3 -16 3 -22 14 -14 45 -2 40 15 -6 16 -34 21
-43 7z"/>
<path d="M5925 2396 c-50 -22 -68 -51 -69 -105 -2 -86 67 -142 146 -120 57 15
83 52 83 115 0 46 -4 58 -30 83 -36 35 -88 46 -130 27z"/>
<path d="M6481 2393 c-47 -23 -77 -90 -61 -137 40 -123 212 -117 236 8 18 96
-87 174 -175 129z"/>
<path d="M7054 2391 c-33 -15 -45 -28 -58 -63 -16 -41 -16 -47 -1 -85 16 -39
31 -52 86 -72 19 -7 36 -4 68 10 97 43 97 175 -2 214 -46 18 -43 19 -93 -4z"/>
<path d="M4792 2385 c-42 -19 -75 -86 -60 -124 13 -37 38 -62 76 -78 80 -34
168 67 128 146 -30 56 -90 80 -144 56z"/>
<path d="M5324 2366 c-29 -29 -34 -41 -34 -80 0 -64 38 -106 103 -113 44 -5
49 -3 87 35 44 44 51 81 25 132 -21 42 -53 60 -103 60 -37 0 -50 -6 -78 -34z"/>
<path d="M7624 2390 c-67 -27 -87 -129 -35 -180 33 -33 69 -45 107 -36 15 4
39 20 55 36 24 23 29 37 29 75 0 40 -5 52 -34 81 -35 35 -75 43 -122 24z"/>
<path d="M4234 2381 c-40 -17 -66 -62 -61 -104 6 -46 22 -66 65 -84 61 -25
132 25 132 94 0 63 -79 118 -136 94z"/>
<path d="M8177 2379 c-24 -14 -47 -62 -47 -100 0 -22 10 -41 34 -65 46 -46
104 -48 147 -5 24 25 29 38 29 79 0 44 -4 54 -31 76 -33 28 -97 35 -132 15z"/>
<path d="M8739 2351 c-21 -22 -29 -39 -29 -66 0 -51 44 -95 95 -95 51 0 95 44
95 95 0 51 -44 95 -95 95 -27 0 -44 -8 -66 -29z"/>
<path d="M3642 2347 c-31 -33 -30 -90 3 -122 53 -54 145 -16 145 60 0 76 -97
116 -148 62z"/>
<path d="M9315 2345 c-48 -47 -25 -125 40 -141 36 -9 71 9 90 47 42 81 -66
159 -130 94z"/>
<path d="M3085 2335 c-14 -13 -25 -36 -25 -50 0 -33 41 -75 73 -75 39 0 77 36
77 74 0 68 -78 99 -125 51z"/>
<path d="M9890 2330 c-58 -58 20 -142 88 -94 28 19 30 74 4 97 -25 23 -68 21
-92 -3z"/>
<path d="M2524 2315 c-9 -14 -13 -32 -9 -45 15 -47 86 -50 107 -5 27 59 -62
105 -98 50z"/>
<path d="M10472 2318 c-28 -28 -7 -78 33 -78 27 0 45 18 45 45 0 27 -18 45
-45 45 -12 0 -26 -5 -33 -12z"/>
<path d="M1973 2304 c-15 -39 38 -67 60 -32 8 12 7 21 -2 32 -17 21 -50 20
-58 0z"/>
<path d="M11047 2297 c-8 -21 8 -39 29 -35 27 5 25 42 -2 46 -12 2 -24 -3 -27
-11z"/>
<path d="M6211 2099 c-56 -25 -79 -75 -59 -128 18 -47 73 -84 112 -77 45 9 76
34 92 72 12 29 12 39 1 67 -16 37 -41 62 -78 75 -20 8 -36 6 -68 -9z"/>
<path d="M6785 2106 c-48 -21 -70 -53 -70 -101 0 -81 78 -133 148 -100 73 35
87 128 26 179 -17 14 -34 26 -39 26 -5 0 -14 2 -22 5 -7 2 -26 -2 -43 -9z"/>
<path d="M5084 2101 c-34 -15 -64 -60 -64 -98 0 -44 54 -103 94 -103 35 0 83
25 96 49 42 80 -45 186 -126 152z"/>
<path d="M5614 2076 c-25 -25 -34 -43 -34 -67 0 -102 116 -151 185 -79 49 51
31 147 -31 170 -49 19 -84 12 -120 -24z"/>
<path d="M7315 2077 c-39 -39 -45 -78 -20 -127 20 -38 43 -50 97 -50 62 0 98
38 98 102 0 65 -29 98 -93 105 -43 5 -49 3 -82 -30z"/>
<path d="M7913 2090 c-31 -14 -44 -27 -53 -54 -40 -122 136 -189 186 -70 17
40 11 74 -19 102 -39 37 -69 42 -114 22z"/>
<path d="M4514 2090 c-58 -23 -72 -105 -27 -152 38 -40 93 -39 134 1 74 74 -9
191 -107 151z"/>
<path d="M8478 2084 c-57 -30 -65 -98 -19 -145 48 -47 115 -35 145 27 14 31
14 39 2 69 -14 32 -59 65 -88 65 -7 -1 -25 -7 -40 -16z"/>
<path d="M3929 2061 c-58 -58 -18 -141 67 -141 32 0 74 42 74 74 0 85 -83 125
-141 67z"/>
<path d="M3388 2064 c-54 -29 -44 -107 15 -128 22 -8 33 -6 55 11 70 52 7 159
-70 117z"/>
<path d="M9030 2058 c-27 -29 -27 -89 0 -113 53 -48 149 1 136 68 -9 46 -33
67 -77 67 -26 0 -45 -7 -59 -22z"/>
<path d="M9610 2050 c-25 -25 -26 -72 -2 -93 25 -22 75 -21 95 1 37 41 6 112
-48 112 -14 0 -34 -9 -45 -20z"/>
<path d="M2822 2044 c-27 -18 -29 -55 -4 -77 24 -22 55 -21 75 1 22 25 21 48
-3 72 -24 24 -38 25 -68 4z"/>
<path d="M10185 2030 c-26 -29 -7 -70 34 -70 39 0 57 23 45 58 -12 35 -53 41
-79 12z"/>
<path d="M2259 2024 c-17 -21 0 -49 32 -49 27 0 37 28 19 50 -16 19 -34 19
-51 -1z"/>
<path d="M10764 2015 c-8 -19 3 -35 26 -35 22 0 33 23 17 39 -15 15 -37 14
-43 -4z"/>
<path d="M6490 1807 c-38 -18 -63 -77 -50 -113 17 -43 39 -63 77 -70 48 -9 93
12 110 54 19 45 9 85 -29 117 -32 27 -69 32 -108 12z"/>
<path d="M5337 1782 c-59 -61 -18 -152 68 -152 36 0 48 5 69 31 15 17 26 43
26 59 0 16 -11 42 -26 59 -21 26 -33 31 -68 31 -33 0 -48 -6 -69 -28z"/>
<path d="M5900 1790 c-28 -28 -28 -112 -1 -139 27 -27 83 -36 118 -19 55 26
68 113 22 159 -27 27 -111 27 -139 -1z"/>
<path d="M7035 1785 c-49 -48 -26 -135 40 -153 88 -25 153 56 110 137 -17 34
-33 41 -86 41 -29 0 -47 -7 -64 -25z"/>
<path d="M7624 1798 c-42 -20 -55 -78 -29 -127 16 -32 33 -41 76 -41 43 0 69
17 85 56 12 29 12 39 0 68 -22 53 -77 71 -132 44z"/>
<path d="M4232 1790 c-28 -12 -45 -54 -37 -91 8 -35 24 -49 67 -55 50 -9 83
21 83 75 0 23 -7 47 -15 56 -20 19 -69 27 -98 15z"/>
<path d="M4771 1774 c-58 -74 24 -173 107 -130 34 17 42 34 42 82 0 49 -29 74
-84 74 -36 0 -48 -5 -65 -26z"/>
<path d="M8171 1774 c-58 -74 24 -173 107 -130 34 17 42 34 42 82 0 49 -29 74
-84 74 -36 0 -48 -5 -65 -26z"/>
<path d="M8772 1785 c-55 -24 -56 -102 -2 -130 39 -20 43 -19 79 11 38 31 41
72 9 101 -33 29 -50 33 -86 18z"/>
<path d="M3672 1778 c-47 -23 -39 -104 12 -121 66 -22 115 69 60 112 -30 23
-39 25 -72 9z"/>
<path d="M9326 1761 c-24 -27 -17 -70 16 -94 25 -19 28 -19 52 -4 42 28 51 55
29 86 -25 33 -72 39 -97 12z"/>
<path d="M3094 1745 c-15 -23 -15 -27 0 -50 30 -46 96 -26 96 29 0 46 -69 61
-96 21z"/>
<path d="M9905 1750 c-37 -40 18 -105 60 -70 22 18 19 67 -4 80 -27 14 -35 13
-56 -10z"/>
<path d="M2544 1736 c-10 -26 4 -48 28 -44 17 2 23 10 23 28 0 18 -6 26 -23
28 -13 2 -25 -3 -28 -12z"/>
<path d="M10484 1735 c-9 -23 4 -47 23 -43 22 4 30 38 11 49 -19 13 -28 11
-34 -6z"/>
<path d="M5083 1505 c-43 -18 -55 -74 -26 -113 44 -60 143 -29 143 44 0 61
-57 95 -117 69z"/>
<path d="M5625 1495 c-54 -53 -14 -144 63 -145 73 0 112 98 59 148 -33 31 -90
30 -122 -3z"/>
<path d="M6196 1499 c-36 -28 -37 -89 -1 -124 53 -54 145 -16 145 60 0 74 -84
111 -144 64z"/>
<path d="M6762 1497 c-33 -35 -30 -99 4 -126 38 -30 80 -27 115 8 32 33 36 58
14 100 -24 48 -96 58 -133 18z"/>
<path d="M7343 1508 c-28 -13 -46 -58 -37 -92 7 -31 48 -66 76 -66 27 0 74 26
82 45 31 81 -43 151 -121 113z"/>
<path d="M4505 1485 c-48 -47 -19 -119 49 -119 47 0 70 23 70 70 0 68 -72 97
-119 49z"/>
<path d="M7897 1492 c-10 -10 -17 -35 -17 -55 0 -48 28 -77 75 -77 22 0 43 8
55 20 12 12 20 33 20 55 0 47 -29 75 -78 75 -25 0 -45 -7 -55 -18z"/>
<path d="M3941 1474 c-27 -34 -26 -50 4 -79 29 -30 45 -31 79 -4 32 25 33 59
3 87 -31 29 -61 28 -86 -4z"/>
<path d="M8466 1478 c-21 -30 -20 -50 5 -82 55 -69 154 9 103 82 -21 31 -87
31 -108 0z"/>
<path d="M9046 1474 c-36 -35 -9 -94 43 -94 35 0 51 17 51 55 0 17 -5 36 -12
43 -17 17 -64 15 -82 -4z"/>
<path d="M3380 1459 c-19 -34 2 -69 40 -69 36 0 61 40 43 68 -16 27 -69 28
-83 1z"/>
<path d="M9620 1461 c-5 -11 -10 -24 -10 -30 0 -14 29 -41 45 -41 18 0 45 27
45 45 0 20 -28 45 -50 45 -11 0 -24 -9 -30 -19z"/>
<path d="M2830 1435 c0 -20 5 -25 25 -25 20 0 25 5 25 25 0 20 -5 25 -25 25
-20 0 -25 -5 -25 -25z"/>
<path d="M10203 1444 c-3 -8 -1 -20 5 -26 15 -15 43 8 35 28 -7 19 -32 18 -40
-2z"/>
<path d="M5373 1218 c-12 -6 -27 -24 -34 -40 -34 -83 85 -137 127 -57 19 38 6
80 -32 98 -29 13 -32 13 -61 -1z"/>
<path d="M5932 1214 c-35 -24 -45 -59 -27 -93 33 -64 124 -51 141 21 5 22 0
33 -24 58 -34 34 -57 37 -90 14z"/>
<path d="M6486 1204 c-31 -32 -33 -62 -5 -98 42 -54 129 -19 129 51 0 22 -8
38 -26 52 -36 28 -66 26 -98 -5z"/>
<path d="M7055 1205 c-49 -48 -16 -125 52 -125 37 0 73 38 73 77 0 32 -42 73
-75 73 -14 0 -37 -11 -50 -25z"/>
<path d="M4790 1200 c-41 -41 -13 -110 44 -110 41 0 66 26 66 68 0 56 -70 82
-110 42z"/>
<path d="M7620 1193 c-15 -19 -19 -35 -15 -53 10 -39 24 -50 66 -50 64 0 92
65 46 108 -32 30 -71 28 -97 -5z"/>
<path d="M8195 1195 c-30 -29 -31 -45 -4 -79 25 -31 61 -34 89 -6 28 28 25 64
-6 89 -34 27 -50 26 -79 -4z"/>
<path d="M4232 1185 c-22 -28 -20 -51 6 -72 26 -21 60 -15 78 13 16 24 16 27
-3 52 -27 37 -56 39 -81 7z"/>
<path d="M8783 1199 c-30 -11 -38 -45 -19 -74 35 -53 109 -11 86 49 -10 27
-36 37 -67 25z"/>
<path d="M3688 1192 c-23 -5 -34 -48 -18 -67 17 -21 57 -19 69 3 21 40 -7 74
-51 64z"/>
<path d="M9340 1169 c-9 -15 -8 -24 1 -35 18 -21 57 -18 64 6 14 44 -44 69
-65 29z"/>
<path d="M3114 1166 c-8 -21 3 -36 27 -36 15 0 20 6 17 22 -4 27 -35 37 -44
14z"/>
<path d="M9920 1155 c0 -10 7 -15 18 -13 21 4 19 22 -2 26 -10 2 -16 -3 -16
-13z"/>
<path d="M6228 924 c-32 -17 -44 -53 -28 -84 23 -42 75 -43 107 -1 19 24 15
45 -9 68 -35 31 -41 32 -70 17z"/>
<path d="M5102 919 c-45 -17 -46 -75 -2 -99 39 -21 91 31 70 70 -15 28 -41 39
-68 29z"/>
<path d="M5647 912 c-35 -39 -9 -102 41 -102 28 0 62 34 62 60 0 27 -35 60
-63 60 -13 0 -31 -8 -40 -18z"/>
<path d="M6776 911 c-24 -27 -17 -70 16 -94 25 -19 28 -19 52 -4 42 28 51 55
29 86 -25 33 -72 39 -97 12z"/>
<path d="M7353 915 c-45 -31 -17 -105 39 -105 37 0 63 61 40 97 -13 20 -56 25
-79 8z"/>
<path d="M4528 909 c-22 -13 -24 -62 -2 -79 24 -21 68 -1 72 31 3 27 -20 59
-41 59 -7 0 -20 -5 -29 -11z"/>
<path d="M7916 904 c-31 -31 -11 -84 32 -84 50 0 73 37 47 76 -18 28 -56 32
-79 8z"/>
<path d="M3968 899 c-24 -14 -23 -46 3 -59 37 -20 67 28 37 58 -14 14 -18 14
-40 1z"/>
<path d="M8484 896 c-3 -8 -4 -25 -2 -38 2 -19 9 -23 38 -23 33 0 35 2 35 35
0 32 -3 35 -33 38 -21 2 -34 -2 -38 -12z"/>
<path d="M9064 885 c-9 -23 3 -45 25 -45 10 0 21 7 25 15 8 23 -4 45 -25 45
-11 0 -22 -7 -25 -15z"/>
<path d="M3404 879 c-10 -17 13 -36 27 -22 12 12 4 33 -11 33 -5 0 -12 -5 -16
-11z"/>
<path d="M5376 614 c-9 -8 -16 -22 -16 -29 0 -18 27 -45 45 -45 18 0 45 27 45
45 0 18 -27 45 -45 45 -7 0 -21 -7 -29 -16z"/>
<path d="M5930 610 c-22 -41 20 -84 65 -67 20 8 30 54 15 72 -19 22 -67 19
-80 -5z"/>
<path d="M6502 618 c-28 -28 -7 -78 34 -78 29 0 46 23 42 57 -2 23 -8 29 -33
31 -17 2 -36 -3 -43 -10z"/>
<path d="M7072 618 c-28 -28 -7 -78 33 -78 27 0 45 18 45 45 0 27 -18 45 -45
45 -12 0 -26 -5 -33 -12z"/>
<path d="M4805 600 c-8 -27 12 -52 39 -48 16 2 21 10 21 33 0 25 -4 31 -27 33
-19 2 -28 -2 -33 -18z"/>
<path d="M7635 601 c-9 -31 5 -51 36 -51 22 0 30 6 35 24 8 34 -2 46 -36 46
-19 0 -31 -6 -35 -19z"/>
<path d="M8210 601 c-7 -15 -6 -24 6 -36 19 -18 33 -16 48 7 7 12 6 21 -3 32
-18 22 -38 20 -51 -3z"/>
<path d="M4246 601 c-11 -18 6 -42 28 -39 29 4 29 42 -1 46 -11 2 -24 -1 -27
-7z"/>
<path d="M8790 585 c0 -8 7 -15 15 -15 8 0 15 7 15 15 0 8 -7 15 -15 15 -8 0
-15 -7 -15 -15z"/>
<path d="M6234 326 c-20 -15 -14 -43 12 -53 20 -8 47 19 39 39 -9 23 -30 29
-51 14z"/>
<path d="M6800 325 c-19 -23 -8 -50 20 -50 16 0 26 6 28 18 4 18 -14 47 -28
47 -4 0 -13 -7 -20 -15z"/>
<path d="M5107 324 c-16 -16 -7 -44 14 -44 15 0 20 5 17 22 -3 22 -19 33 -31
22z"/>
<path d="M5660 306 c0 -28 28 -42 47 -23 19 19 5 47 -23 47 -19 0 -24 -5 -24
-24z"/>
<path d="M7364 316 c-8 -21 3 -36 27 -36 15 0 20 6 17 22 -4 27 -35 37 -44 14z"/>
<path d="M7942 304 c4 -21 22 -23 26 -1 2 10 -3 17 -13 17 -10 0 -15 -6 -13
-16z"/>
<path d="M5966 21 c-4 -7 -5 -15 -2 -18 9 -9 19 4 14 18 -4 11 -6 11 -12 0z"/>
<path d="M6530 16 c0 -9 5 -16 10 -16 6 0 10 4 10 9 0 6 -4 13 -10 16 -5 3
-10 -1 -10 -9z"/>
<path d="M7101 14 c0 -11 3 -14 6 -6 3 7 2 16 -1 19 -3 4 -6 -2 -5 -13z"/>
</g>
</svg>
