<?xml version="1.0" standalone="no"?>
<!DOCTYPE svg PUBLIC "-//W3C//DTD SVG 20010904//EN"
 "http://www.w3.org/TR/2001/REC-SVG-20010904/DTD/svg10.dtd">
<svg version="1.0" xmlns="http://www.w3.org/2000/svg"
 width="1280.000000pt" height="1141.000000pt" viewBox="0 0 1280.000000 1141.000000"
 preserveAspectRatio="xMidYMid meet">
<g transform="translate(0.000000,1141.000000) scale(0.100000,-0.100000)"
fill="#000000" stroke="none">
<path d="M564 11385 c-69 -41 -92 -117 -56 -184 43 -80 145 -93 211 -27 32 33
36 42 36 91 0 46 -4 58 -30 85 -32 33 -78 60 -104 60 -9 0 -35 -11 -57 -25z"/>
<path d="M1845 11382 c-94 -65 -95 -175 -2 -232 86 -53 197 12 197 115 0 53
-30 99 -79 125 -52 26 -68 25 -116 -8z"/>
<path d="M3137 11389 c-129 -68 -85 -259 60 -259 35 0 87 31 109 65 22 34 22
106 0 139 -20 31 -88 76 -113 76 -10 -1 -35 -10 -56 -21z"/>
<path d="M4414 11385 c-95 -57 -97 -187 -3 -237 66 -35 146 -12 181 53 37 69
12 145 -60 185 -53 30 -67 30 -118 -1z"/>
<path d="M5695 11382 c-94 -65 -95 -175 -2 -232 86 -53 197 12 197 115 0 53
-30 99 -79 125 -52 26 -68 25 -116 -8z"/>
<path d="M6987 11389 c-130 -68 -85 -259 61 -259 67 0 138 83 128 149 -7 45
-29 76 -76 106 -47 30 -63 30 -113 4z"/>
<path d="M8266 11386 c-84 -49 -99 -147 -33 -213 108 -108 277 15 211 153 -18
37 -87 85 -120 83 -10 0 -37 -11 -58 -23z"/>
<path d="M9548 11384 c-51 -33 -70 -65 -70 -119 0 -53 20 -88 65 -115 87 -54
197 11 197 115 0 53 -30 99 -79 125 -51 25 -67 25 -113 -6z"/>
<path d="M10837 11389 c-130 -68 -85 -259 61 -259 69 0 140 87 128 155 -8 41
-46 88 -88 110 -40 19 -55 19 -101 -6z"/>
<path d="M12130 11395 c-14 -8 -39 -28 -55 -45 -26 -27 -30 -39 -30 -85 0 -49
4 -58 36 -91 110 -109 279 12 213 152 -18 37 -87 85 -120 83 -10 -1 -30 -7
-44 -14z"/>
<path d="M556 9935 c-109 -39 -164 -167 -117 -270 78 -173 332 -155 382 27 20
77 -3 152 -65 206 -57 50 -128 63 -200 37z"/>
<path d="M1845 9938 c-150 -53 -187 -258 -63 -351 133 -99 311 -21 325 142 12
142 -129 255 -262 209z"/>
<path d="M3101 9924 c-70 -35 -103 -86 -109 -164 -6 -80 23 -141 86 -181 142
-90 312 0 312 166 0 93 -51 164 -139 194 -53 17 -92 13 -150 -15z"/>
<path d="M4405 9935 c-53 -19 -111 -82 -125 -136 -46 -169 134 -315 290 -234
41 21 88 80 101 127 20 77 -3 152 -65 206 -57 50 -127 63 -201 37z"/>
<path d="M5695 9938 c-85 -30 -135 -102 -135 -193 0 -201 252 -277 367 -112
24 35 28 50 28 112 0 63 -4 77 -29 113 -50 73 -151 108 -231 80z"/>
<path d="M6953 9925 c-32 -16 -61 -41 -79 -67 -25 -36 -29 -50 -29 -113 0 -62
4 -77 28 -112 114 -165 368 -88 368 112 0 91 -53 164 -140 194 -52 17 -92 13
-148 -14z"/>
<path d="M8256 9935 c-132 -47 -176 -215 -84 -321 77 -87 199 -96 285 -21 95
84 95 220 0 304 -58 51 -128 64 -201 38z"/>
<path d="M9545 9938 c-83 -29 -135 -103 -135 -193 0 -97 57 -171 151 -196 57
-15 103 -7 161 30 90 57 116 187 56 279 -48 72 -153 108 -233 80z"/>
<path d="M10826 9935 c-49 -17 -93 -59 -117 -110 -80 -174 125 -355 288 -254
114 71 132 221 38 315 -61 61 -130 77 -209 49z"/>
<path d="M12106 9935 c-132 -47 -176 -215 -84 -321 77 -87 199 -96 285 -21 95
84 95 220 0 304 -58 51 -128 64 -201 38z"/>
<path d="M567 8489 c-132 -32 -211 -131 -211 -264 0 -114 55 -200 159 -247
101 -45 243 -16 311 65 117 138 78 346 -79 421 -61 29 -127 38 -180 25z"/>
<path d="M1853 8490 c-137 -28 -221 -143 -211 -289 6 -76 23 -116 75 -167 78
-79 209 -102 305 -55 91 44 158 149 158 246 0 166 -162 298 -327 265z"/>
<path d="M3140 8490 c-59 -12 -88 -28 -135 -71 -112 -103 -112 -285 1 -389 60
-55 105 -73 184 -73 107 -1 199 56 247 151 25 51 25 183 0 233 -54 108 -184
174 -297 149z"/>
<path d="M4408 8486 c-103 -28 -176 -107 -198 -213 -13 -61 -4 -117 30 -182
60 -118 217 -168 348 -111 203 88 209 388 9 484 -66 31 -129 39 -189 22z"/>
<path d="M5703 8490 c-80 -16 -152 -72 -190 -148 -26 -52 -25 -183 1 -236 47
-94 139 -150 246 -149 79 0 124 18 184 73 112 104 113 286 1 389 -69 64 -153
88 -242 71z"/>
<path d="M6990 8491 c-124 -26 -220 -142 -220 -267 0 -101 74 -211 168 -251
54 -23 156 -21 213 4 51 23 110 77 136 126 26 47 25 188 -1 241 -53 107 -182
170 -296 147z"/>
<path d="M8260 8487 c-198 -55 -269 -287 -136 -444 91 -107 284 -115 389 -15
83 78 106 217 54 318 -57 112 -191 173 -307 141z"/>
<path d="M9553 8490 c-122 -25 -212 -137 -213 -265 0 -151 118 -269 270 -268
77 0 123 17 180 69 65 59 85 105 85 199 0 94 -20 140 -85 199 -67 60 -149 83
-237 66z"/>
<path d="M10837 8489 c-125 -30 -217 -142 -217 -264 0 -55 28 -130 66 -173
133 -155 381 -116 459 72 21 50 19 161 -4 212 -51 111 -188 181 -304 153z"/>
<path d="M12108 8486 c-139 -38 -226 -175 -198 -312 30 -146 182 -248 317
-214 139 35 217 129 217 265 0 112 -56 201 -154 244 -62 27 -126 33 -182 17z"/>
<path d="M590 7043 c-96 -12 -190 -68 -244 -146 -80 -117 -82 -260 -6 -375
152 -227 474 -203 591 43 24 51 29 73 29 140 0 68 -4 89 -29 140 -62 130 -207
214 -341 198z"/>
<path d="M1855 7040 c-112 -16 -224 -107 -265 -218 -30 -79 -25 -195 12 -267
131 -253 485 -252 610 3 29 59 33 76 33 147 -1 60 -6 92 -23 128 -67 149 -208
228 -367 207z"/>
<path d="M3132 7039 c-106 -18 -194 -84 -244 -187 -29 -59 -33 -76 -33 -147 0
-71 4 -89 33 -147 18 -36 51 -82 73 -103 139 -125 349 -118 475 17 69 74 89
125 89 233 0 78 -4 97 -28 146 -30 62 -93 126 -154 157 -34 18 -58 24 -138 36
-11 2 -44 -1 -73 -5z"/>
<path d="M4419 7039 c-25 -4 -69 -19 -98 -33 -205 -104 -248 -377 -85 -540
196 -196 523 -90 574 186 41 219 -164 422 -391 387z"/>
<path d="M5701 7038 c-111 -17 -220 -107 -260 -214 -91 -242 121 -499 373
-453 117 21 203 88 255 198 38 82 37 192 -2 276 -66 140 -211 217 -366 193z"/>
<path d="M6989 7039 c-110 -17 -208 -92 -257 -197 -22 -47 -27 -71 -27 -137 0
-71 4 -89 33 -147 51 -104 134 -167 248 -187 203 -37 394 126 394 334 0 206
-186 365 -391 334z"/>
<path d="M8275 7040 c-28 -4 -73 -19 -100 -33 -164 -83 -233 -278 -157 -441
102 -219 377 -269 546 -100 152 151 128 402 -48 518 -79 51 -150 68 -241 56z"/>
<path d="M9552 7039 c-104 -17 -197 -87 -248 -186 -26 -51 -29 -68 -29 -148 0
-78 4 -97 28 -146 34 -69 100 -132 175 -167 46 -21 71 -26 133 -25 132 1 235
64 300 185 31 58 34 70 34 153 -1 78 -4 97 -28 143 -37 70 -86 123 -144 154
-42 23 -65 30 -148 42 -11 2 -44 -1 -73 -5z"/>
<path d="M10837 7039 c-105 -16 -208 -95 -255 -197 -38 -81 -38 -193 0 -274
101 -219 373 -271 546 -104 24 22 56 64 70 91 24 45 27 61 27 150 0 89 -3 105
-27 150 -71 133 -214 206 -361 184z"/>
<path d="M12125 7040 c-106 -15 -211 -96 -259 -200 -38 -81 -37 -192 3 -275
117 -246 439 -270 591 -43 160 240 -45 557 -335 518z"/>
<path d="M503 5576 c-104 -34 -204 -123 -251 -224 -24 -51 -27 -69 -27 -167 0
-104 2 -114 32 -175 41 -83 110 -152 193 -193 61 -30 71 -32 175 -32 104 0
114 2 176 32 80 40 159 120 197 200 24 52 27 69 27 168 0 98 -3 116 -27 168
-38 80 -117 161 -197 199 -58 28 -78 32 -161 35 -61 2 -110 -2 -137 -11z"/>
<path d="M1773 5571 c-108 -40 -186 -112 -236 -220 -94 -199 -2 -444 202 -540
50 -23 68 -26 166 -26 103 0 114 2 178 32 122 58 202 165 228 305 31 170 -64
349 -228 430 -59 29 -77 33 -162 35 -75 2 -108 -2 -148 -16z"/>
<path d="M3075 5577 c-71 -24 -123 -56 -173 -106 -199 -199 -140 -533 116
-654 63 -30 74 -32 177 -32 100 0 115 2 167 28 88 43 152 107 195 195 36 73
38 80 38 176 0 92 -3 107 -31 166 -46 95 -102 153 -191 197 -68 34 -84 37
-167 40 -56 2 -106 -2 -131 -10z"/>
<path d="M4353 5576 c-104 -34 -204 -123 -251 -224 -24 -51 -27 -69 -27 -167
0 -104 2 -114 32 -176 40 -80 120 -159 200 -197 52 -24 69 -27 168 -27 104 0
114 2 176 32 80 40 159 120 197 200 24 52 27 69 27 168 0 99 -3 116 -27 168
-37 79 -117 160 -196 199 -58 29 -77 33 -161 35 -61 2 -111 -2 -138 -11z"/>
<path d="M5629 5572 c-109 -37 -190 -110 -243 -222 -28 -59 -31 -74 -31 -166
0 -96 2 -103 38 -176 43 -88 107 -152 195 -195 52 -26 67 -28 167 -28 103 0
114 2 178 32 311 148 310 590 -2 737 -85 39 -213 47 -302 18z"/>
<path d="M6925 5576 c-152 -48 -256 -168 -286 -327 -32 -174 63 -354 228 -432
64 -30 75 -32 178 -32 98 0 116 3 165 26 85 40 154 108 197 197 36 73 38 80
38 177 0 91 -3 106 -31 166 -74 156 -208 240 -378 238 -39 0 -89 -6 -111 -13z"/>
<path d="M8192 5571 c-29 -11 -68 -29 -86 -40 -53 -33 -125 -117 -154 -179
-24 -51 -27 -69 -27 -167 0 -104 2 -114 32 -176 40 -80 120 -159 200 -197 52
-24 69 -27 168 -27 104 0 114 2 176 32 80 40 159 120 197 200 24 52 27 69 27
168 0 99 -3 116 -27 168 -37 79 -117 160 -196 199 -58 29 -77 33 -161 35 -76
3 -107 -1 -149 -16z"/>
<path d="M9495 5577 c-71 -24 -127 -58 -176 -107 -198 -198 -138 -533 119
-656 81 -39 213 -45 303 -15 346 117 372 599 41 754 -57 27 -80 32 -157 34
-55 2 -105 -2 -130 -10z"/>
<path d="M10773 5575 c-191 -59 -317 -261 -283 -454 24 -136 107 -247 229
-305 61 -29 74 -31 176 -31 98 0 116 3 167 27 31 14 77 45 102 68 278 256 102
713 -273 709 -42 0 -95 -6 -118 -14z"/>
<path d="M12042 5571 c-29 -11 -68 -29 -86 -40 -53 -33 -125 -117 -154 -179
-24 -51 -27 -69 -27 -167 0 -104 2 -114 32 -176 40 -80 120 -159 200 -197 52
-24 69 -27 168 -27 104 0 114 2 175 32 83 41 152 110 193 193 30 61 32 71 32
175 0 99 -3 116 -27 168 -37 79 -117 160 -196 199 -58 29 -77 33 -161 35 -76
3 -107 -1 -149 -16z"/>
<path d="M490 4121 c-138 -44 -237 -129 -296 -256 -31 -64 -37 -89 -42 -163
-9 -159 31 -267 137 -372 108 -107 215 -147 373 -138 74 5 99 11 163 42 264
125 356 448 197 692 -45 68 -77 100 -147 143 -109 69 -267 90 -385 52z"/>
<path d="M1781 4124 c-167 -45 -304 -191 -340 -362 -62 -297 163 -572 468
-572 132 0 229 40 329 134 62 58 93 108 122 192 28 81 28 217 0 298 -82 240
-336 376 -579 310z"/>
<path d="M3068 4125 c-180 -49 -320 -206 -348 -389 -36 -234 114 -465 344
-531 80 -23 219 -17 299 14 127 50 241 169 283 298 28 84 25 228 -6 308 -77
199 -247 317 -455 314 -38 0 -91 -7 -117 -14z"/>
<path d="M4340 4121 c-88 -28 -140 -60 -201 -120 -92 -93 -139 -205 -139 -336
0 -190 103 -349 277 -433 77 -36 80 -37 198 -37 118 0 121 1 198 37 340 163
375 628 63 830 -117 75 -273 99 -396 59z"/>
<path d="M5631 4124 c-79 -21 -147 -62 -211 -125 -201 -202 -179 -539 47 -711
85 -64 158 -90 269 -96 152 -7 262 37 368 147 249 262 124 693 -228 787 -65
18 -176 17 -245 -2z"/>
<path d="M6920 4126 c-286 -80 -433 -392 -311 -661 54 -119 180 -226 305 -260
86 -23 218 -17 299 15 125 48 241 168 280 290 86 265 -64 546 -328 615 -70 18
-182 18 -245 1z"/>
<path d="M8180 4117 c-161 -55 -273 -173 -315 -332 -58 -224 50 -452 262 -553
77 -36 80 -37 198 -37 118 0 121 1 197 37 129 61 214 156 258 288 18 54 21 82
18 165 -3 91 -7 107 -40 178 -105 220 -355 330 -578 254z"/>
<path d="M9481 4124 c-213 -57 -369 -283 -347 -502 26 -250 226 -432 476 -432
429 0 638 526 326 818 -67 62 -142 104 -217 121 -62 15 -175 12 -238 -5z"/>
<path d="M10770 4126 c-214 -62 -350 -242 -350 -461 0 -366 372 -586 704 -418
109 55 210 193 237 321 15 75 6 193 -21 264 -46 122 -156 232 -279 279 -70 27
-224 35 -291 15z"/>
<path d="M12038 4121 c-113 -36 -199 -101 -260 -195 -159 -245 -67 -567 197
-692 64 -31 89 -37 163 -42 158 -9 265 31 373 138 106 105 146 213 137 372 -7
116 -51 213 -136 297 -124 125 -313 173 -474 122z"/>
<path d="M515 2679 c-165 -37 -310 -149 -379 -292 -103 -213 -63 -461 104
-627 106 -106 236 -160 388 -160 407 0 667 437 476 801 -109 207 -366 328
-589 278z"/>
<path d="M1784 2676 c-97 -22 -181 -71 -260 -150 -217 -218 -216 -552 1 -768
100 -99 242 -158 380 -158 152 0 278 53 385 160 109 108 160 232 160 385 0
234 -139 432 -360 513 -82 30 -218 38 -306 18z"/>
<path d="M3085 2680 c-105 -21 -224 -88 -297 -166 -87 -94 -138 -230 -138
-368 0 -157 50 -279 159 -386 108 -107 235 -160 386 -160 252 0 477 185 530
435 8 39 15 88 15 110 0 136 -62 278 -164 381 -132 132 -315 189 -491 154z"/>
<path d="M4346 2674 c-32 -8 -89 -30 -126 -50 -265 -139 -364 -459 -227 -734
65 -131 220 -249 365 -279 292 -60 575 118 648 409 22 87 15 223 -16 305 -101
266 -375 414 -644 349z"/>
<path d="M5645 2679 c-145 -29 -308 -156 -373 -289 -34 -69 -62 -179 -62 -245
0 -22 7 -71 15 -110 53 -250 278 -435 530 -435 151 0 278 53 386 160 109 107
159 229 159 386 0 234 -137 431 -356 511 -79 28 -217 39 -299 22z"/>
<path d="M6935 2680 c-255 -51 -435 -272 -435 -534 0 -157 50 -279 159 -386
175 -173 422 -209 642 -94 257 135 358 456 227 724 -46 94 -154 200 -250 244
-111 51 -233 68 -343 46z"/>
<path d="M8196 2674 c-250 -60 -429 -303 -413 -559 29 -472 594 -688 927 -355
302 301 154 817 -261 915 -79 18 -175 18 -253 -1z"/>
<path d="M9495 2679 c-125 -25 -275 -129 -345 -239 -112 -175 -113 -415 -2
-585 157 -242 458 -323 715 -194 85 43 193 154 234 239 142 299 4 645 -303
757 -79 28 -217 39 -299 22z"/>
<path d="M10752 2670 c-98 -26 -174 -70 -247 -144 -104 -105 -155 -232 -155
-383 0 -152 52 -276 161 -385 264 -262 705 -188 870 147 103 208 67 441 -95
612 -140 149 -335 205 -534 153z"/>
<path d="M12046 2675 c-251 -64 -429 -304 -413 -560 29 -472 594 -688 927
-355 200 200 215 513 34 734 -53 66 -157 137 -244 166 -84 29 -222 35 -304 15z"/>
<path d="M495 1224 c-118 -26 -209 -77 -300 -168 -49 -50 -93 -105 -113 -142
-35 -67 -82 -233 -82 -289 0 -50 45 -215 74 -272 60 -118 160 -219 279 -279
56 -29 222 -74 272 -74 56 0 222 47 289 82 93 49 214 174 260 270 64 134 79
253 50 396 -31 153 -131 302 -261 388 -129 86 -318 121 -468 88z"/>
<path d="M1780 1225 c-219 -49 -402 -222 -466 -440 -23 -81 -23 -239 0 -319
33 -111 83 -196 165 -276 89 -88 179 -137 310 -169 119 -30 133 -29 291 16
249 70 424 290 438 550 6 114 -9 194 -54 291 -98 213 -293 345 -526 357 -61 3
-115 0 -158 -10z"/>
<path d="M3083 1229 c-163 -27 -328 -141 -416 -286 -56 -92 -79 -173 -85 -293
-8 -185 48 -329 179 -461 77 -78 188 -138 314 -169 101 -25 133 -25 236 1 131
32 222 81 310 169 123 122 181 261 181 432 0 110 -14 172 -64 277 -113 237
-386 375 -655 330z"/>
<path d="M4345 1224 c-117 -26 -209 -77 -301 -169 -92 -92 -144 -185 -169
-302 -57 -269 71 -542 316 -673 62 -33 229 -80 284 -80 48 0 215 44 267 71
308 156 432 515 284 822 -42 88 -133 190 -219 247 -126 83 -314 117 -462 84z"/>
<path d="M5630 1225 c-222 -50 -408 -227 -466 -445 -22 -84 -22 -225 0 -309
42 -163 170 -322 316 -393 80 -39 219 -78 279 -78 110 1 315 83 407 164 201
177 262 486 143 730 -74 151 -216 272 -379 320 -79 24 -221 29 -300 11z"/>
<path d="M6933 1229 c-230 -38 -434 -233 -489 -465 -23 -100 -15 -246 19 -344
65 -185 221 -331 407 -383 159 -45 172 -46 291 -16 196 48 346 164 428 329 89
181 89 369 0 548 -119 241 -387 376 -656 331z"/>
<path d="M8205 1225 c-136 -30 -237 -87 -328 -185 -66 -71 -108 -142 -138
-235 -35 -104 -33 -271 3 -373 15 -41 42 -98 60 -129 44 -72 158 -180 234
-220 67 -36 233 -83 289 -83 50 0 216 45 272 74 260 132 394 422 323 700 -29
116 -73 190 -165 281 -94 94 -186 145 -307 169 -92 19 -161 19 -243 1z"/>
<path d="M9480 1224 c-177 -38 -339 -164 -417 -325 -52 -106 -64 -159 -64
-274 0 -114 12 -167 63 -274 54 -113 159 -220 268 -273 81 -40 219 -78 282
-78 43 0 172 31 233 57 70 29 173 102 224 160 59 65 115 173 137 262 24 96 16
254 -19 350 -103 290 -407 460 -707 395z"/>
<path d="M10767 1225 c-86 -17 -197 -71 -263 -127 -137 -117 -210 -260 -221
-435 -8 -120 8 -196 63 -310 82 -170 216 -276 418 -328 120 -31 142 -31 262 0
121 31 201 74 281 149 133 124 195 265 196 446 2 175 -54 312 -178 436 -146
148 -352 210 -558 169z"/>
<path d="M12055 1225 c-246 -54 -431 -238 -479 -477 -29 -143 -14 -262 50
-396 46 -96 167 -221 260 -270 67 -35 233 -82 289 -82 50 0 216 45 272 74 119
60 219 161 279 279 29 57 74 222 74 272 0 56 -47 222 -82 289 -48 91 -174 213
-268 258 -128 62 -269 81 -395 53z"/>
</g>
</svg>
